<?xml version="1.0" standalone="no"?>
<!DOCTYPE svg PUBLIC "-//W3C//DTD SVG 1.1//EN" "http://www.w3.org/Graphics/SVG/1.1/DTD/svg11.dtd" >
<svg xmlns="http://www.w3.org/2000/svg">
<metadata></metadata>
<defs>
<font id="pmn_caecilialightitalic" horiz-adv-x="1138" >
<font-face units-per-em="2048" ascent="1638" descent="-410" />
<missing-glyph horiz-adv-x="569" />
<glyph horiz-adv-x="2048" />
<glyph horiz-adv-x="2048" />
<glyph unicode="&#xd;" horiz-adv-x="681" />
<glyph unicode=" "  horiz-adv-x="569" />
<glyph unicode="&#x09;" horiz-adv-x="569" />
<glyph unicode="&#xa0;" horiz-adv-x="569" />
<glyph unicode="!" horiz-adv-x="606" d="M160 72q0 45 24.5 75.5t65.5 30.5q39 0 62.5 -28.5t23.5 -67.5q0 -41 -26.5 -67.5t-61.5 -26.5q-41 0 -64.5 23.5t-23.5 60.5zM240 483l82 1092h114l-106 -1092h-90z" />
<glyph unicode="&#x22;" horiz-adv-x="796" d="M215 1522q0 23 18.5 46t55.5 23t55 -23.5t18 -45.5q0 -27 -6 -82l-28 -285q-4 -49 -39 -49t-39 49l-29 285q-6 55 -6 82zM496 1522q0 23 18 46t55 23t55.5 -23.5t18.5 -45.5q0 -27 -6 -82l-29 -285q-4 -49 -39 -49t-39 49l-28 285q-6 55 -6 82z" />
<glyph unicode="#" d="M53 459l15 98h235l45 320h-235l14 98h235l64 459h98l-63 -459h291l63 459h98l-63 -459h235l-14 -98h-235l-45 -320h235l-14 -98h-236l-63 -459h-99l64 459h-291l-63 -459h-99l64 459h-236zM401 557h291l45 320h-291z" />
<glyph unicode="$" d="M70 53l22 275h90l-6 -205q55 -20 151.5 -36.5t145.5 -16.5l57 632q-225 68 -308 153t-83 208q0 86 31 155.5t79 110.5t111.5 69.5t121 40t116.5 15.5l23 254h90l-23 -254q195 -10 322 -61l-13 -254h-84v188q-119 37 -233 37l-51 -578q82 -29 128 -46t108.5 -51t94 -68.5 t55 -90t23.5 -122.5q0 -197 -142 -304.5t-341 -123.5l-25 -275h-90l25 275q-123 6 -236.5 28.5t-158.5 44.5zM254 1073q0 -102 63.5 -152.5t223.5 -109.5l49 553q-139 -4 -237.5 -82t-98.5 -209zM563 70q145 16 253 98t108 233q0 106 -69 159t-237 114z" />
<glyph unicode="%" horiz-adv-x="1630" d="M76 -39l1394 1571l66 -59l-1395 -1571zM123 1106q0 150 87 249t239 99q125 0 198.5 -77t73.5 -214q0 -160 -91 -258t-229 -98q-135 0 -206.5 84t-71.5 215zM229 1106q0 -94 45 -151.5t138 -57.5q78 0 140 64.5t62 197.5q0 92 -42 148.5t-130 56.5t-150.5 -59.5 t-62.5 -198.5zM926 279q0 150 87 249t238 99q125 0 199 -77t74 -214q0 -160 -91.5 -258t-228.5 -98q-135 0 -206.5 84t-71.5 215zM1032 279q0 -94 45 -151.5t137 -57.5q78 0 140.5 64.5t62.5 197.5q0 92 -42 148.5t-130 56.5t-150.5 -59.5t-62.5 -198.5z" />
<glyph unicode="&#x26;" horiz-adv-x="1517" d="M106 375q0 80 29 148.5t82 122.5t105.5 94t119.5 87q14 10 23 15q-164 174 -164 317q0 123 89 213t241 90q121 0 202.5 -64.5t81.5 -178.5q0 -66 -30.5 -126.5t-86 -109.5t-97.5 -80t-101 -65l438 -480q47 72 77 181.5t32 212.5h-164l8 90h400l-9 -90h-137 q-18 -281 -149 -457l112 -121q47 -51 80 -67.5t84 -16.5h62l-9 -90h-82q-72 0 -106.5 21.5t-114.5 105.5q-18 16 -26 27l-60 61l-26.5 -26.5t-41 -38t-50 -39t-68.5 -42t-79 -34t-98.5 -26.5t-113.5 -9q-207 0 -330 103.5t-123 271.5zM213 385q0 -145 107.5 -220t246.5 -75 q246 1 412 191l-461 503q-305 -188 -305 -399zM399 1167q0 -117 148 -276q8 4 50 32.5t55.5 39t48 38t48 45t34 46t27.5 57t7 61.5q0 82 -55 122t-133 40q-98 0 -164 -53t-66 -152z" />
<glyph unicode="'" horiz-adv-x="569" d="M242 1522q0 23 18.5 46t55 23t55 -23.5t18.5 -45.5q0 -27 -6 -82l-29 -285q-4 -49 -39 -49t-39 49l-28 285q-6 55 -6 82z" />
<glyph unicode="(" horiz-adv-x="681" d="M213 391q0 336 133.5 648.5t366.5 568.5l61 -54q-96 -123 -166.5 -234.5t-139.5 -259t-104.5 -321.5t-35.5 -366q0 -487 231 -865l-63 -55q-139 215 -211 439.5t-72 498.5z" />
<glyph unicode=")" horiz-adv-x="681" d="M-195 -494q96 123 167 235t139.5 259t104.5 321.5t36 366.5q0 487 -232 864l64 56q139 -215 211 -439.5t72 -498.5q0 -336 -133.5 -648.5t-366.5 -568.5z" />
<glyph unicode="*" horiz-adv-x="681" d="M98 1204l228 86l-209 123l63 90l178 -168l4 240h107l-55 -240l194 140l54 -95l-230 -90l213 -114l-61 -89l-174 158v-233h-107l51 233l-207 -135z" />
<glyph unicode="+" horiz-adv-x="1228" d="M96 469v98h469v469h99v-469h469v-98h-469v-469h-99v469h-469z" />
<glyph unicode="," horiz-adv-x="569" d="M59 -250q172 72 172 184q0 39 -31.5 79t-31.5 77q0 41 26.5 61.5t61.5 20.5q53 0 82 -41t29 -111q0 -131 -76 -205.5t-197 -127.5z" />
<glyph unicode="-" horiz-adv-x="720" d="M133 483l8 99h426l-8 -99h-426z" />
<glyph unicode="." horiz-adv-x="569" d="M150 72q0 45 24.5 75.5t65.5 30.5q39 0 62.5 -28.5t23.5 -67.5q0 -41 -27 -67.5t-61 -26.5q-41 0 -64.5 23.5t-23.5 60.5z" />
<glyph unicode="/" horiz-adv-x="796" d="M-33 -117l813 1708l82 -41l-813 -1708z" />
<glyph unicode="0" d="M100 580q0 238 53.5 430t176.5 318t297 126q106 0 187 -47t125 -115.5t71.5 -162t36 -169t8.5 -155.5q0 -152 -28 -290t-87 -262t-167.5 -198.5t-252.5 -74.5q-215 0 -317.5 170t-102.5 430zM207 592q0 -514 334 -514q115 0 198.5 70.5t126.5 185.5t62.5 232.5 t19.5 238.5q0 279 -88 415t-239 136q-117 0 -202 -75t-129 -196.5t-63.5 -244.5t-19.5 -248z" />
<glyph unicode="1" d="M172 1171l449 263h102l-117 -1344h297l-8 -90h-668l9 90h264l108 1247l-4 4q-6 -12 -41 -36l-348 -207z" />
<glyph unicode="2" d="M88 0l8 82q35 35 123 119t128 122.5t116 115.5t114.5 121t96 110.5t87.5 113.5t61.5 102.5t45 103.5t13.5 93q0 125 -73 199t-194 74q-272 0 -352 -305h-106q35 164 147.5 283.5t321.5 119.5q182 0 276 -108.5t94 -245.5q0 -59 -12 -108.5t-51 -128.5t-130 -187.5 t-233 -249.5l-333 -332v-4q45 8 65 8h694l-8 -98h-899z" />
<glyph unicode="3" d="M78 45l10 107q190 -74 354 -74q184 0 294 88t110 240q0 80 -32 137t-75 85.5t-115.5 45t-128 19.5t-137.5 3l9 99h39q197 0 319.5 102t122.5 229q0 98 -66.5 164t-191.5 66q-119 0 -203 -65.5t-106 -182.5h-107q-2 4 6 38t34 86t70 101t128 85t192 36q178 0 264 -93 t86 -220q0 -156 -99 -251t-255 -124v-4q162 -20 261.5 -102t99.5 -236q0 -186 -136.5 -315t-398.5 -129q-147 -1 -348 65z" />
<glyph unicode="4" d="M47 465l10 96l725 873h119l-76 -879h258l-8 -90h-260l-33 -375h172l-8 -90h-416l9 90h137l33 375h-662zM162 549q39 6 82 6h475l67 739h-4z" />
<glyph unicode="5" d="M106 27l9 106q111 -55 295 -55q201 0 317.5 104.5t116.5 263.5q0 100 -43 168t-133 106t-195.5 54.5t-263.5 24.5l63 635h691l-9 -99h-594l-47 -446q129 -2 237.5 -23.5t202 -69.5t145.5 -135.5t52 -205.5q0 -84 -31.5 -165t-95 -152.5t-173 -114.5t-249.5 -43 q-158 0 -295 47z" />
<glyph unicode="6" d="M121 555q0 66 10 141.5t34.5 184t78 205t130.5 181.5t200.5 136t279.5 51q129 0 219 -37l-22 -86q-80 33 -195 33q-522 0 -625 -680l5 -4q51 84 151 146.5t234 62.5q170 0 284.5 -118t114.5 -302q0 -197 -121 -343t-326 -146q-233 0 -342.5 154.5t-109.5 420.5zM227 580 q0 -98 16.5 -181.5t53.5 -161t109.5 -122.5t175.5 -45q137 0 234 107.5t97 281.5q0 150 -87 241t-230 91q-68 0 -127 -20.5t-108.5 -60.5t-74 -64.5t-59.5 -65.5z" />
<glyph unicode="7" d="M135 0q125 172 176 260l541 938q53 96 90 137h-737l8 99h846l-8 -74l-650 -1137q-43 -76 -141 -223h-125z" />
<glyph unicode="8" d="M76 338q0 270 395 416q-74 43 -113 69.5t-83 68.5t-62 91t-18 113q0 127 73.5 212t165.5 115.5t193 30.5q160 0 273.5 -78t113.5 -229q0 -80 -31 -143.5t-92.5 -111.5t-108.5 -74.5t-120 -59.5q180 -80 266 -168t86 -223q0 -172 -135.5 -279.5t-366.5 -107.5 q-199 0 -317.5 94t-118.5 264zM182 334q0 -119 94.5 -191.5t260.5 -72.5q168 0 269 76.5t101 215.5q0 53 -22.5 100.5t-47 77t-86 67.5t-88 51.5t-106.5 52.5q-90 -39 -144.5 -69t-113.5 -75t-88 -103t-29 -130zM301 1102q0 -53 20.5 -96t67.5 -82t82 -61.5t104 -61.5 q74 35 120 61.5t101.5 69.5t83 97t27.5 118q0 109 -85 163t-199 54q-152 0 -237 -73.5t-85 -188.5z" />
<glyph unicode="9" d="M70 12l24 92q131 -35 225 -34q504 0 584 698l-4 4q-123 -197 -356 -197q-174 0 -289 109t-115 309q0 219 134.5 340t312.5 121q186 0 305 -146.5t119 -441.5q0 -139 -22.5 -265t-76 -240.5t-131.5 -198.5t-195.5 -133t-262.5 -49q-121 -1 -252 32zM246 999 q0 -150 88 -237.5t237 -87.5q182 0 332 196q0 127 -30.5 233.5t-108.5 183.5t-195 77q-141 0 -232 -101.5t-91 -263.5z" />
<glyph unicode=":" horiz-adv-x="569" d="M150 72q0 45 24.5 75.5t65.5 30.5q39 0 62.5 -28.5t23.5 -67.5q0 -41 -27 -67.5t-61 -26.5q-41 0 -64.5 23.5t-23.5 60.5zM233 909q0 45 25 76t66 31q39 0 62.5 -29t23.5 -67q0 -41 -27 -68t-61 -27q-41 0 -65 23.5t-24 60.5z" />
<glyph unicode=";" horiz-adv-x="569" d="M59 -250q172 72 172 184q0 39 -31.5 79t-31.5 77q0 41 26.5 61.5t61.5 20.5q53 0 82 -41t29 -111q0 -131 -76 -205.5t-197 -127.5zM233 909q0 45 25 76t66 31q39 0 62.5 -29t23.5 -67q0 -41 -27 -68t-61 -27q-41 0 -65 23.5t-24 60.5z" />
<glyph unicode="&#x3c;" horiz-adv-x="1228" d="M96 461v114l1037 478v-115l-912 -420l912 -420v-114z" />
<glyph unicode="=" horiz-adv-x="1228" d="M96 268v99h1037v-99h-1037zM96 670v98h1037v-98h-1037z" />
<glyph unicode="&#x3e;" horiz-adv-x="1228" d="M96 -16v114l912 420l-912 420v115l1037 -478v-114z" />
<glyph unicode="?" horiz-adv-x="985" d="M207 72q0 45 24.5 75.5t65.5 30.5q39 0 62.5 -28.5t23.5 -67.5q0 -41 -26.5 -67.5t-61.5 -26.5q-41 0 -64.5 23.5t-23.5 60.5zM225 623q0 18 4 36.5t8.5 32t14.5 29.5t17 26.5t23.5 25.5t23 22.5t26.5 21.5t26.5 18.5t29 19.5t26.5 17l139 93q186 123 187 284 q0 115 -79 179.5t-206 64.5q-131 0 -219 -39l-21 92q135 45 254 45q182 0 279.5 -95t97.5 -232q0 -121 -62.5 -209t-131.5 -135l-140 -95q-84 -57 -112.5 -77.5t-53 -52t-24.5 -64.5q0 -29 10 -51.5t30.5 -48t24.5 -31.5l-82 -64q-90 96 -90 187z" />
<glyph unicode="@" horiz-adv-x="1638" d="M74 717q0 311 230.5 528t555.5 217q297 0 501 -176t204 -444q0 -223 -155 -396.5t-325 -173.5q-61 0 -99 35t-36 103h-4q-143 -137 -284 -138q-119 0 -192 80t-73 215q0 221 141.5 404.5t348.5 183.5q164 0 225 -168h4l49 133h115l-205 -590q-27 -80 -26 -118 q0 -49 55 -50q133 0 247.5 161t114.5 325q0 231 -179 377.5t-427 146.5q-295 0 -491.5 -192.5t-196.5 -462.5q0 -274 198.5 -465t489.5 -191q166 0 320.5 76t238.5 205h119q-102 -170 -286.5 -270.5t-391.5 -100.5q-334 0 -560 218.5t-226 527.5zM504 578q0 -207 174 -207 q150 0 260.5 167t110.5 324q0 100 -41 147.5t-131 47.5q-152 0 -262.5 -159.5t-110.5 -319.5z" />
<glyph unicode="A" horiz-adv-x="1554" d="M18 0l9 90h143l616 1354h115l377 -1354h172l-8 -90h-422l8 90h133l-133 492h-532l-220 -492h173l-9 -90h-422zM537 672h467l-142 530q-25 96 -31 144h-4q-20 -61 -55 -144z" />
<glyph unicode="B" horiz-adv-x="1175" d="M66 0l8 90h139l111 1253h-170l8 91h444q158 0 246 -43q176 -86 176 -281q0 -125 -80 -225.5t-231 -128.5v-4h6q141 0 241 -86q102 -88 103 -244q0 -201 -178 -332q-123 -90 -402 -90h-421zM319 90h244q61 0 120.5 13.5t124 46t104.5 104.5t40 172q0 141 -107.5 208.5 t-283.5 67.5h-106q-53 0 -82 -4zM381 788q31 -4 94 -4h74q154 0 259 81t105 243q0 78 -29.5 129t-84 72.5t-100.5 27.5t-111 6h-158z" />
<glyph unicode="C" horiz-adv-x="1327" d="M125 647q0 88 16.5 184.5t67.5 213t131 205.5t219 150.5t320 61.5q141 0 344 -59l-9 -270h-98l8 202q-123 37 -252 37q-141 0 -253.5 -46t-182 -119.5t-116 -173t-63.5 -198t-17 -202.5q0 -272 148.5 -422t408.5 -150q143 0 254 43l20 195h90l-20 -268 q-72 -25 -183.5 -42.5t-175.5 -17.5q-180 0 -312 57.5t-204.5 157t-106.5 214t-34 247.5z" />
<glyph unicode="D" horiz-adv-x="1478" d="M66 0l8 90h139l111 1253h-170l8 91h536q205 0 307.5 -33t170.5 -88q204 -165 204 -495q0 -294 -155 -517q-209 -301 -619 -301h-540zM319 90h291q377 0 543 299q113 201 113 440q0 213 -103 345q-70 90 -163 129.5t-255 39.5h-315z" />
<glyph unicode="E" d="M66 0l8 90h139l111 1253h-170l8 91h889l-25 -291h-90l8 200h-514l-49 -555h526l-6 -90h-528l-54 -608h576l29 201h90l-27 -291h-921z" />
<glyph unicode="F" horiz-adv-x="1062" d="M66 0l8 90h139l111 1253h-170l8 91h882l-24 -299h-90l8 208h-508l-51 -585h504l-9 -90h-503l-52 -578h185l-8 -90h-430z" />
<glyph unicode="G" horiz-adv-x="1441" d="M125 631q0 371 199.5 601t545.5 230q199 0 373 -59l-16 -266h-90v194q-104 41 -265 41q-141 0 -253.5 -46t-182 -119.5t-116 -173t-63.5 -198t-17 -202.5q0 -266 149.5 -419t407.5 -153q147 0 270 52l37 381h-178l8 90h418l-9 -90h-141l-37 -451q-229 -72 -387 -72 q-178 0 -310 57.5t-203.5 155t-105.5 209t-34 238.5z" />
<glyph unicode="H" horiz-adv-x="1517" d="M66 0l8 90h139l111 1253h-170l8 91h416l-9 -91h-139l-51 -585h768l51 585h-170l8 91h416l-8 -91h-139l-111 -1253h170l-8 -90h-416l8 90h139l52 578h-768l-52 -578h170l-8 -90h-415z" />
<glyph unicode="I" horiz-adv-x="643" d="M66 0l8 90h139l111 1253h-170l8 91h416l-9 -91h-139l-111 -1253h170l-8 -90h-415z" />
<glyph unicode="J" horiz-adv-x="606" d="M-225 -274q258 131 352 297.5t125 511.5l72 808h-170l8 91h416l-9 -91h-139l-72 -804q-10 -127 -26.5 -216.5t-53 -196t-93 -184t-151.5 -156.5t-227 -138z" />
<glyph unicode="K" horiz-adv-x="1290" d="M66 0l8 90h139l111 1253h-170l8 91h416l-9 -91h-139l-51 -581l647 581h-172l8 91h420l-8 -91h-123l-662 -593l607 -660h143l-8 -90h-422l8 90h144l-586 637l-56 -637h170l-8 -90h-415z" />
<glyph unicode="L" horiz-adv-x="1024" d="M66 0l8 90h139l111 1253h-170l8 91h416l-9 -91h-139l-111 -1253h512l29 205h90l-32 -295h-852z" />
<glyph unicode="M" horiz-adv-x="1781" d="M49 0l8 90h146l127 1253h-185l9 91h313l334 -1151q33 -109 45 -185h4q27 88 70 185l526 1151h287l-9 -91h-145l-86 -1253h170l-8 -90h-414l8 90h146l82 1200h-4q-27 -78 -99 -227l-493 -1063h-99l-317 1063q-29 94 -47 184h-4l-113 -1157h170l-8 -90h-414z" />
<glyph unicode="N" horiz-adv-x="1554" d="M49 0l8 90h146l104 1253h-164l9 91h245l703 -1172q8 -14 17 -30.5t17.5 -33t12.5 -22.5h4l102 1167h-182l8 91h426l-8 -91h-145l-117 -1343h-98l-703 1174q-23 41 -35 71h-4l-94 -1155h182l-8 -90h-426z" />
<glyph unicode="O" horiz-adv-x="1478" d="M125 618q0 393 190.5 618.5t491.5 225.5q262 0 404.5 -172t142.5 -463q0 -164 -38 -311t-114 -272t-210 -199t-308 -74q-279 0 -419 180t-140 467zM240 618q0 -240 92 -374q123 -182 358 -183q121 0 235.5 63.5t180.5 170.5q74 121 103.5 242.5t29.5 300.5 q0 238 -109.5 386t-328.5 148q-127 0 -226.5 -48t-161 -123t-102.5 -177t-56 -202t-15 -204z" />
<glyph unicode="P" horiz-adv-x="1099" d="M66 0l8 90h139l111 1253h-170l8 91h413q170 0 275 -48q188 -84 188 -321q0 -213 -133 -339t-397 -126q-86 0 -143 8l-46 -518h187l-8 -90h-432zM373 690q70 -8 135 -8q119 0 206 34t132 90t65.5 117.5t20.5 129.5q0 290 -340 290h-2h-160z" />
<glyph unicode="Q" horiz-adv-x="1478" d="M125 618q0 393 190.5 618.5t491.5 225.5q262 0 404.5 -172t142.5 -463q0 -313 -126 -541.5t-358 -289.5v-4q76 -8 189 -74l170 -100q168 -100 233 -101q49 0 125 33l-8 -88q-78 -35 -127 -35q-74 0 -270 111l-215 123q-2 0 -32 17.5t-39 22.5t-38 20.5t-44 20.5t-40.5 14 t-47 12t-44.5 3q-279 0 -418 181.5t-139 465.5zM240 618q0 -240 92 -374q123 -182 358 -183q121 0 235.5 63.5t180.5 170.5q74 121 103.5 242.5t29.5 300.5q0 238 -109.5 386t-328.5 148q-127 0 -226.5 -48t-161 -123t-102.5 -177t-56 -202t-15 -204z" />
<glyph unicode="R" horiz-adv-x="1251" d="M66 0l8 90h139l111 1253h-170l8 91h426q188 0 280 -45q170 -80 170 -304q0 -180 -116.5 -293.5t-296.5 -113.5v-4q80 -6 129 -48t108 -165l78 -160q72 -145 100.5 -178t77.5 -33h86l-8 -90h-139q-63 0 -101 42t-106 183l-107 224q-59 125 -111 163.5t-161 38.5h-102 l-50 -561h170l-8 -90h-415zM377 739q86 -6 162 -6q188 0 290.5 98.5t102.5 253.5q0 53 -13.5 95.5t-31 70t-52 46t-59 27.5t-71 13t-71 5t-71.5 1h-133z" />
<glyph unicode="S" horiz-adv-x="1099" d="M70 41l22 276h82l-6 -204q141 -51 289 -52q215 0 317.5 98.5t102.5 235.5q0 59 -21.5 104.5t-71 78t-80 47t-98.5 39.5l-160 59q-150 55 -231.5 128t-81.5 204q0 188 132 297.5t360 109.5q170 0 340 -57l-17 -256h-82v184q-92 31 -243 39q-193 0 -284 -85t-91 -214 q0 -102 56 -152.5t161 -86.5l237 -86q137 -51 213 -130t76 -217q0 -170 -132 -300t-390 -130q-168 0 -399 70z" />
<glyph unicode="T" horiz-adv-x="1214" d="M47 1141l33 293h1153l-25 -293h-90l8 202h-426l-110 -1253h174l-8 -90h-420l8 90h139l111 1253h-426l-31 -202h-90z" />
<glyph unicode="U" horiz-adv-x="1478" d="M125 1343l8 91h414l-8 -91h-138l-61 -663q-20 -219 -21 -313q0 -305 359 -306q68 0 125 10.5t99 25t76 42t56.5 50t40 61.5t26.5 63.5t16 69.5t9 65.5t7 63.5l71 831h-182l8 91h414l-8 -91h-142l-71 -843q-25 -268 -117 -369q-150 -160 -434 -160q-459 0 -459 400 q0 39 20 280l62 692h-170z" />
<glyph unicode="V" horiz-adv-x="1402" d="M63 1343l9 91h413l-8 -91h-139l280 -1099q12 -47 29 -146h4q29 98 49 146l465 1099h-168l9 91h413l-8 -91h-139l-588 -1343h-106l-347 1343h-168z" />
<glyph unicode="W" horiz-adv-x="2086" d="M72 1343l8 91h414l-9 -91h-139l279 -1126q2 -8 24 -127h4q39 121 43 127l361 856l-68 270h-168l8 91h414l-8 -91h-139l274 -1091q14 -55 31 -162h4q25 90 49 162l397 1091h-174l9 91h417l-8 -91h-145l-496 -1343h-127l-227 922h-4l-396 -922h-127l-333 1343h-168z" />
<glyph unicode="X" horiz-adv-x="1441" d="M41 0l8 90h137l486 655l-330 598h-170l8 91h414l-8 -91h-137q20 -25 34 -49l254 -460l340 460q29 37 43 49h-182l8 91h420l-8 -91h-137l-439 -593l363 -660h168l-8 -90h-414l8 90h139q-8 8 -32 49l-287 520l-383 -520q-20 -33 -41 -49h180l-8 -90h-426z" />
<glyph unicode="Y" horiz-adv-x="1366" d="M45 1343l8 91h414l-8 -91h-133q8 -8 32 -49l330 -598l426 598q20 33 41 49h-174l8 91h420l-8 -91h-146l-526 -731l-45 -522h172l-8 -90h-420l8 90h142l45 518l-410 735h-168z" />
<glyph unicode="Z" horiz-adv-x="1251" d="M57 0l6 74l938 1206q27 35 62 63l-4 5q-14 -4 -53 -5h-701l-26 -200h-91l23 291h983l-6 -74l-946 -1221q-6 -6 -47 -53q57 4 84 4h725l32 205h90l-30 -295h-1039z" />
<glyph unicode="[" horiz-adv-x="606" d="M129 -514l182 2089h324l-8 -90h-224l-167 -1909h202l-8 -90h-301z" />
<glyph unicode="\" horiz-adv-x="796" d="M57 1550l82 41l594 -1708l-82 -41z" />
<glyph unicode="]" horiz-adv-x="606" d="M-61 -514l8 90h223l168 1909h-203l8 90h301l-182 -2089h-323z" />
<glyph unicode="^" horiz-adv-x="1228" d="M190 686l375 748h99l374 -748h-114l-310 612l-309 -612h-115z" />
<glyph unicode="_" horiz-adv-x="1024" d="M0 -154h1024v-102h-1024v102z" />
<glyph unicode="`" horiz-adv-x="569" d="M104 1468l82 58l254 -246l-69 -59z" />
<glyph unicode="a" horiz-adv-x="1099" d="M106 360q0 139 31 262t92.5 226.5t170 164t249.5 60.5q100 0 199 -39h59q-23 -111 -41 -338l-49 -606h168l-8 -90h-266l51 467q2 16 22 115h-4q-29 -106 -30 -115q-29 -86 -65 -163t-86 -154.5t-119.5 -123.5t-145.5 -46q-227 0 -228 380zM213 362q0 -284 134 -284h1 q121 0 248 207t190 604l11 63q-98 39 -172 39q-197 0 -310 -184q-102 -176 -102 -445z" />
<glyph unicode="b" horiz-adv-x="1099" d="M100 1485l9 90h299l-84 -887l-31 -190h4l31 123q12 51 47 121.5t89 147.5t132 130t160 53q84 0 140 -58.5t76.5 -137t20.5 -175.5q0 -74 -12 -156.5t-49 -187t-93.5 -185.5t-158.5 -137t-234 -56q-147 0 -280 63l131 1442h-197zM279 92q104 -31 176 -31q117 0 205 62.5 t135 163t69.5 205t22.5 206.5q0 125 -35 205t-111 80q-131 0 -273 -232.5t-183 -603.5z" />
<glyph unicode="c" horiz-adv-x="833" d="M63 449q0 266 127 445t373 179q92 0 219 -35l-24 -247h-90l8 178q-37 14 -105 14q-203 0 -302 -152.5t-99 -373.5q0 -379 281 -379q127 0 274 86l-8 -107q-43 -29 -124 -53t-155 -24q-182 0 -278.5 124.5t-96.5 344.5z" />
<glyph unicode="d" horiz-adv-x="1099" d="M106 350q0 344 166 551q139 172 377 172q88 0 154 -26l41 438h-199l8 90h297l-131 -1485h168l-8 -90h-266l45 420q2 25 7 53.5t12 64t11 54.5h-4q-2 -10 -12 -52t-16 -63q-27 -76 -48.5 -130t-61.5 -129t-81 -122t-102.5 -81.5t-128.5 -34.5q-102 0 -165 101t-63 269z M213 385q0 -307 141 -307q80 0 157 85t131 207t90 241.5t48 205.5l17 131q-70 35 -168 35q-119 0 -206 -61.5t-129 -158.5t-61.5 -191.5t-19.5 -186.5z" />
<glyph unicode="e" horiz-adv-x="909" d="M92 420q0 119 29 230.5t86 208.5t156.5 155.5t226.5 58.5q119 0 185.5 -60.5t66.5 -164.5q0 -102 -63.5 -184t-166 -130.5t-205 -76t-208.5 -39.5q0 -49 2 -80t15 -88t40 -91t81 -61.5t130 -27.5q123 0 295 96l-8 -105q-141 -81 -297 -81h-4q-199 0 -280 114.5t-81 325.5 zM199 508q229 18 382.5 108.5t153.5 223.5q0 55 -38 99t-128 44q-156 0 -255 -134t-115 -341z" />
<glyph unicode="f" horiz-adv-x="681" d="M-279 -504l9 90q94 -35 164 -35q170 0 236.5 147.5t92.5 530.5l51 734h-163l8 90h162q18 283 121.5 410.5t349.5 127.5q35 0 93 -9t73 -17l-9 -90q-71 26 -151 26h-6q-113 0 -184.5 -29.5t-108.5 -96t-51.5 -136.5t-20.5 -186h303l-8 -90h-301l-55 -734 q-10 -133 -19.5 -214t-28 -181t-46 -158.5t-71.5 -113t-108.5 -78t-150.5 -23.5q-72 0 -181 35z" />
<glyph unicode="g" horiz-adv-x="1099" d="M80 -442l8 108q135 -90 285 -90q61 0 111.5 10.5t87 37t63.5 51t46 71.5t30.5 80t20.5 96.5t13.5 99t10.5 107.5l16 170q10 127 51 303h-4q-4 -8 -15 -46t-20 -56q-102 -250 -178 -353q-118 -159 -260 -159h-2q-70 0 -119 35.5t-73.5 95t-35 119t-10.5 124.5 q0 72 12.5 154t49.5 184.5t95.5 182.5t160.5 135t235 55q113 0 213 -39h70q-18 -102 -29 -225q-4 -37 -20 -255t-31.5 -403.5t-23.5 -234.5q-10 -66 -20.5 -109t-43.5 -110.5t-78 -107.5t-128 -71.5t-193 -31.5q-141 0 -295 72zM213 360q0 -137 39 -209.5t106 -72.5 q90 0 188.5 123t167 292.5t93.5 323.5l20 137q-82 37 -163 37q-119 0 -210.5 -55t-141.5 -148.5t-74.5 -201t-24.5 -226.5z" />
<glyph unicode="h" d="M96 1485l8 90h299l-86 -881q-4 -43 -10 -84t-14 -88t-12 -73h4q4 14 11 43.5t11 44.5q23 78 58.5 159.5t93 171.5t140.5 147.5t175 57.5q176 0 176 -248q0 -150 -78 -735h170l-8 -90h-276q94 639 94 819q0 156 -102 156q-39 0 -86.5 -23.5t-108.5 -92t-116.5 -172 t-106.5 -283t-80 -404.5h-98q31 233 51 455l90 1030h-199z" />
<glyph unicode="i" horiz-adv-x="569" d="M100 963l9 90h272l-86 -963h174l-8 -90h-273l86 963h-174zM264 1485q0 49 29 77.5t67.5 28.5t61 -25.5t22.5 -66.5q0 -45 -26.5 -72.5t-71.5 -27.5q-37 0 -59.5 25.5t-22.5 60.5z" />
<glyph unicode="j" horiz-adv-x="569" d="M-223 -457q219 76 306 207t116 445l69 768h-172l6 90h279l-76 -844q-23 -248 -80 -392.5t-154.5 -222.5t-269.5 -133zM264 1485q0 49 29 77.5t67.5 28.5t61 -25.5t22.5 -66.5q0 -45 -26.5 -72.5t-71.5 -27.5q-37 0 -59.5 25.5t-22.5 60.5z" />
<glyph unicode="k" horiz-adv-x="1062" d="M96 1485l8 90h299l-51 -586q-8 -98 -57 -356h4q23 76 35 104q145 336 391 336q90 0 149.5 -56t59.5 -149q0 -125 -136 -235.5t-343 -153.5l331 -389h162l-8 -90h-217l-412 487q-31 -135 -59 -487h-98q31 233 51 455l90 1030h-199zM317 518q199 31 354.5 126t155.5 210 q0 57 -30.5 89t-83.5 32q-135 0 -239.5 -130t-156.5 -327z" />
<glyph unicode="l" horiz-adv-x="530" d="M96 1485l8 90h287l-131 -1485h174l-8 -90h-272l131 1485h-189z" />
<glyph unicode="m" horiz-adv-x="1744" d="M76 963l8 90h276l-26 -299q-12 -150 -39 -287h4q8 25 14 59q12 55 43 131t86.5 177.5t142.5 170t187 68.5q106 0 141 -68.5t35 -187.5q0 -88 -30 -252h4q16 61 49 137t87 165t136 147.5t172 58.5q51 0 86 -20.5t52.5 -46t27.5 -67.5t11 -67.5t1 -64.5q0 -129 -84 -717 h166l-8 -90h-272q6 41 34.5 226.5t47 334t18.5 238.5q0 37 -2 59.5t-11.5 54t-33 47t-60.5 15.5q-98 0 -213.5 -152.5t-177.5 -359.5q-47 -156 -92 -463h-98q4 27 19.5 131.5t21.5 147.5t18 134t17.5 146t10.5 125t5 125q0 166 -98 166q-61 0 -133 -58.5t-142.5 -170 t-128 -307t-80.5 -439.5h-98q12 72 43 432l39 531h-176z" />
<glyph unicode="n" d="M63 963l9 90h286l-41 -359q-4 -43 -10 -84t-14 -88t-12 -73h4q4 14 11 43.5t11 44.5q23 78 58.5 159.5t93 171.5t140.5 147.5t175 57.5q176 0 176 -248q0 -150 -78 -735h170l-8 -90h-276q94 639 94 819q0 156 -102 156q-39 0 -86.5 -23.5t-108.5 -92t-116.5 -172 t-106.5 -283t-80 -404.5h-98q31 233 51 455l45 508h-187z" />
<glyph unicode="o" horiz-adv-x="985" d="M63 451q0 160 45.5 295t157 231t275.5 96q158 0 255 -118.5t97 -352.5q0 -270 -123 -446t-342 -176q-160 0 -262.5 112.5t-102.5 358.5zM170 444q0 -162 63.5 -268t198.5 -106q96 0 169 50t111 131t56 167t18 176q0 195 -72.5 292t-191.5 97q-92 0 -162.5 -49 t-110.5 -130t-59.5 -172.5t-19.5 -187.5z" />
<glyph unicode="p" horiz-adv-x="1099" d="M-23 -514l9 90h141l123 1387h-172l8 90h272l-20 -230q-10 -123 -49 -338h4q4 12 13 52.5t16 62.5q66 203 178 338t260 135q70 0 119 -37t72.5 -99.5t32.5 -123.5t9 -129q0 -170 -55 -324.5t-178 -263t-291 -108.5q-121 0 -201 26l-43 -438h176l-8 -90h-416zM274 106 q118 -36 180 -36h3q117 0 204 58t134 154.5t69.5 204t22.5 224.5q0 272 -152 272q-129 0 -269 -239.5t-171 -485.5q-2 -25 -9 -76t-12 -76z" />
<glyph unicode="q" horiz-adv-x="1099" d="M106 362q0 72 12.5 154t49.5 184.5t95.5 182.5t160.5 135t235 55q113 0 213 -39h70q-14 -74 -31 -270l-104 -1188h174l-8 -90h-414l8 90h142l57 651q12 137 57 375h-4q-4 -8 -15 -46t-20 -56q-102 -250 -178 -353q-118 -159 -260 -159h-2q-70 0 -119 35.5t-73.5 95 t-35 119t-10.5 124.5zM213 360q0 -137 39 -209.5t106 -72.5q90 0 188.5 123t167 292.5t93.5 323.5l20 137q-82 37 -163 37q-119 0 -210.5 -55t-141.5 -148.5t-74.5 -201t-24.5 -226.5z" />
<glyph unicode="r" horiz-adv-x="796" d="M100 963l9 90h268l-29 -283q-12 -106 -35 -229h4q6 18 13.5 53t11.5 53q61 203 117 285q98 141 264 141q43 0 78 -10l-17 -96q-37 8 -69 8q-80 0 -145.5 -51.5t-108.5 -141.5t-74 -186t-50.5 -215t-29.5 -197t-18 -159q-2 -16 -2 -25h-99q43 440 52 551l32 412h-172z" />
<glyph unicode="s" horiz-adv-x="909" d="M76 41v254h98v-180q20 -14 82.5 -29.5t124.5 -15.5q133 0 207 54t74 150q0 70 -43.5 113t-163.5 90q-203 80 -269.5 132.5t-66.5 168.5q0 139 102.5 217t280.5 78q121 0 266 -47v-244h-98v179q-85 30 -172 30h-6q-111 0 -189 -50t-78 -155q0 -66 48.5 -105.5t162.5 -82.5 q92 -35 134 -54.5t97.5 -56t78 -84t22.5 -112.5q0 -133 -98.5 -222t-286.5 -89q-178 0 -307 61z" />
<glyph unicode="t" horiz-adv-x="720" d="M86 963l8 90h180l25 278h98l-24 -278h315l-8 -90h-315l-43 -492q-16 -205 -17 -233q0 -168 131 -168q111 0 215 65l-6 -96q-115 -59 -229 -59q-123 0 -166 64.5t-43 170.5q0 35 14 236l45 512h-180z" />
<glyph unicode="u" horiz-adv-x="1175" d="M106 963l9 90h276q-94 -639 -94 -820q0 -155 101 -155h1q39 0 86 23.5t108.5 92t117 172t106.5 282.5t80 405h98q-31 -233 -51 -455l-45 -508h186l-8 -90h-286l40 350q6 47 20.5 131t18.5 113h-4q-10 -53 -35 -129q-18 -61 -54 -134t-93 -157t-139 -139t-170 -55 q-176 0 -176 247q0 150 77 736h-170z" />
<glyph unicode="v" d="M63 963l9 90h278q-2 -33 -14 -218.5t-12 -297.5q0 -252 33.5 -355.5t119.5 -103.5q119 0 223 164q131 207 177 610l12 111h-180l8 90h278l-12 -140q-27 -328 -127 -583q-63 -162 -174 -256t-215 -94q-51 0 -90 18t-63.5 43t-42 74t-26.5 87t-13.5 109.5t-5.5 113.5 t-1 124q0 119 17 414h-179z" />
<glyph unicode="w" horiz-adv-x="1669" d="M63 963l9 90h280q-6 -33 -24.5 -255.5t-18.5 -344.5q0 -59 1 -90t5 -83.5t14.5 -81t27 -60.5t44 -46t66.5 -14q94 0 180 123t117 268q27 123 70 584h98q-35 -457 -35 -572q0 -195 34 -299t132 -104q88 0 157.5 80t106.5 189.5t60.5 243.5t30.5 224t7 148h-172l7 90h272 q-4 -70 -6 -116t-12 -137t-19.5 -156.5t-29 -157t-44 -157t-61.5 -136t-81 -113.5t-104.5 -71.5t-130.5 -28.5q-119 0 -174 94t-55 243v82h-4q-41 -184 -138.5 -301.5t-230.5 -117.5q-57 0 -100 20t-68.5 62t-41 80t-21.5 100.5t-7 97.5t-1 94q0 125 33 529h-173z" />
<glyph unicode="x" horiz-adv-x="1099" d="M63 0l9 82l424 465l-234 416h-160l9 90h225l235 -432l308 342h-179l9 90h295l-9 -90l-381 -420l246 -453h168l-8 -90h-227l-250 465l-344 -375h163l-8 -90h-291z" />
<glyph unicode="y" horiz-adv-x="1062" d="M-10 -524l14 90q45 -14 90 -15q57 0 102.5 18.5t77 44.5t67.5 84t60.5 110.5t67.5 148.5l-270 1006h-154l8 90h238l209 -828q12 -53 28 -145h4q14 45 48 135l282 748h-178l8 90h287l-8 -66q-27 -82 -73 -205t-136 -351t-148 -376q-131 -340 -241.5 -467t-282.5 -127 q-61 0 -100 15z" />
<glyph unicode="z" horiz-adv-x="985" d="M63 0l9 86l630 811q27 37 60 66h-551l-23 -164h-82l23 254h766l-8 -68l-631 -819q-33 -43 -66 -76h582l25 164h82l-25 -254h-791z" />
<glyph unicode="{" horiz-adv-x="606" d="M90 485l8 90q70 4 108 74t52 240l35 407q23 279 227 279h105l-9 -90h-84q-115 0 -131 -158l-39 -459q-27 -307 -169 -336v-4q117 -41 116 -219q0 -20 -22 -317q-25 -270 -25 -311q0 -104 103 -105h86l-9 -90h-104q-182 0 -182 217q0 102 24 303q23 221 23 303 q0 170 -113 176z" />
<glyph unicode="|" horiz-adv-x="454" d="M178 -512v2048h98v-2048h-98z" />
<glyph unicode="}" horiz-adv-x="606" d="M-80 -514l8 90h84q115 0 131 158l39 459q27 307 170 335v4q-117 41 -116 220q0 20 22 317q25 270 25 311q0 104 -103 105h-86l8 90h105q182 0 182 -217q0 -102 -24 -303q-23 -221 -23 -303q0 -170 113 -177l-9 -90q-70 -4 -107.5 -73.5t-51.5 -239.5l-35 -408 q-23 -279 -227 -278h-105z" />
<glyph unicode="~" horiz-adv-x="1228" d="M141 461q92 176 256 176q80 0 235.5 -69.5t201.5 -69.5q39 0 75.5 25.5t52 45t52.5 68.5l73 -62q-41 -55 -67.5 -85.5t-77.5 -60.5t-111 -30q-78 0 -213 70q-131 70 -231 69.5t-172 -139.5z" />
<glyph unicode="&#xa1;" horiz-adv-x="606" d="M158 -498l106 1092h90l-82 -1092h-114zM258 995q0 41 26.5 68t61.5 27q41 0 64.5 -23.5t23.5 -60.5q0 -45 -24.5 -76t-65.5 -31q-39 0 -62.5 28.5t-23.5 67.5z" />
<glyph unicode="&#xa2;" d="M184 442q0 162 41 287t107.5 195.5t138.5 106.5t145 42l19 219h82l-19 -219q139 0 271 -41l-25 -241h-90l8 167q-86 25 -172 25l-80 -913q72 0 154 26.5t139 65.5l-14 -111q-129 -72 -287 -71l-22 -248h-82l22 248q-160 16 -248 139t-88 323zM291 442q0 -145 58 -244 t179 -122l80 907q-154 -20 -235.5 -175t-81.5 -366z" />
<glyph unicode="&#xa3;" d="M27 0l8 90h133q117 154 117 584v33h-207l8 90h199v86q0 571 481 571q152 0 311 -55l-24 -260h-90l8 196q-76 29 -203 29q-205 0 -291 -117t-86 -356v-94h318l-9 -90h-309v-58q0 -188 -31.5 -346t-93.5 -209v-4h596l33 201h90l-31 -291h-927z" />
<glyph unicode="&#xa4;" d="M61 287l109 114q-109 135 -109 315.5t109 315.5l-109 115l78 78l109 -115q135 115 321.5 115t321.5 -115l108 115l78 -78l-108 -115q109 -135 108.5 -315t-108.5 -316l108 -114l-78 -78l-108 115q-135 -115 -321.5 -115t-321.5 115l-109 -115zM160 717q0 -168 120.5 -289 t288.5 -121t289 121t121 289t-121 288.5t-289 120.5t-288.5 -120.5t-120.5 -288.5z" />
<glyph unicode="&#xa5;" d="M61 1343l9 91h344l-8 -91h-109l289 -643l401 643h-145l8 91h350l-8 -91h-123l-399 -651h248l-9 -82h-286l-17 -161h287l-8 -82h-287l-27 -277h144l-8 -90h-351l9 90h116l27 277h-287l8 82h287l16 161h-286l8 82h238l-293 651h-138z" />
<glyph unicode="&#xa6;" horiz-adv-x="454" d="M178 -358v716h98v-716h-98zM178 666v716h98v-716h-98z" />
<glyph unicode="&#xa7;" d="M94 -362l25 249h90l-8 -174q94 -47 260 -47q131 0 227 58.5t96 187.5q0 72 -42 118t-124 93l-215 123q-233 131 -233 301q0 121 76 204t178 103v4q-74 33 -131 100.5t-57 169.5q0 154 109.5 244t307.5 90q160 0 316 -43l-25 -250h-90l8 181q-84 31 -205 30 q-127 0 -221 -56t-94 -175q0 -66 29.5 -114t63.5 -72.5t112 -69.5l203 -117q92 -53 144 -116.5t52 -163.5q0 -117 -77.5 -202t-174.5 -101v-5q197 -100 197 -266q0 -158 -122 -252t-314 -94q-41 0 -82 3t-70 7t-65.5 12.5t-52 12.5t-49.5 14t-42 13zM276 561 q0 -168 355 -330q80 27 144.5 89.5t64.5 156.5q0 63 -33 118t-135 112l-193 108q-203 -92 -203 -254z" />
<glyph unicode="&#xa8;" horiz-adv-x="569" d="M92 1368q0 35 21.5 64.5t68.5 29.5q31 0 50.5 -21.5t19.5 -54.5q0 -27 -19.5 -59.5t-62.5 -32.5q-78 0 -78 74zM498 1368q0 35 21.5 64.5t68.5 29.5q31 0 50 -21.5t19 -54.5q0 -27 -19.5 -59.5t-62.5 -32.5q-78 0 -77 74z" />
<glyph unicode="&#xa9;" horiz-adv-x="1638" d="M74 717q0 309 218 527t527 218t527.5 -218t218.5 -527t-218.5 -527.5t-527.5 -218.5t-527 218.5t-218 527.5zM172 717q0 -268 189.5 -457.5t457.5 -189.5t457.5 189.5t189.5 457.5t-189.5 457.5t-457.5 189.5t-457.5 -189.5t-189.5 -457.5zM395 717q0 207 119 338 t324 131q150 0 255 -82t126 -227h-107q-18 92 -91 151t-183 59q-160 0 -248 -103t-88 -267q0 -152 92 -262.5t244 -110.5q111 0 183.5 61.5t90.5 157.5h107q-33 -152 -133.5 -234.5t-247.5 -82.5q-199 0 -321 134t-122 337z" />
<glyph unicode="&#xaa;" horiz-adv-x="714" d="M92 1028q0 170 89 298t270 128q41 0 137 -20h67q-10 -41 -24 -205l-35 -348h96l-6 -66h-188l39 285h-5q-25 -59 -47 -101.5t-58 -93.5t-80 -78.5t-93 -27.5q-90 0 -126 68.5t-36 160.5zM190 1028q0 -156 89 -156q68 0 157.5 139.5t110.5 317.5l4 37q-49 23 -96 23 q-76 0 -132.5 -41t-83 -104.5t-38 -117t-11.5 -98.5z" />
<glyph unicode="&#xab;" horiz-adv-x="948" d="M104 510l9 74l311 280l65 -65l-282 -256l235 -277l-75 -65zM465 510l8 74l311 280l66 -65l-283 -256l236 -277l-76 -65z" />
<glyph unicode="&#xac;" horiz-adv-x="1228" d="M96 670v98h1037v-541h-99v443h-938z" />
<glyph unicode="&#xad;" horiz-adv-x="720" d="M133 483l8 99h426l-8 -99h-426z" />
<glyph unicode="&#xae;" horiz-adv-x="1638" d="M74 717q0 309 218 527t527 218t527.5 -218t218.5 -527t-218.5 -527.5t-527.5 -218.5t-527 218.5t-218 527.5zM172 717q0 -268 189.5 -457.5t457.5 -189.5t457.5 189.5t189.5 457.5t-189.5 457.5t-457.5 189.5t-457.5 -189.5t-189.5 -457.5zM535 268v899h346 q293 0 293 -249q0 -211 -226 -250l266 -400h-110l-266 400h-205v-400h-98zM633 758h225q217 -4 217 162q0 158 -217 157h-225v-319z" />
<glyph unicode="&#xaf;" horiz-adv-x="569" d="M133 1323l8 90h459l-8 -90h-459z" />
<glyph unicode="&#xb0;" horiz-adv-x="819" d="M137 1161q0 121 86 207t207 86t207 -86t86 -207t-86 -207t-207 -86t-207 86t-86 207zM227 1161q0 -84 59.5 -143.5t143.5 -59.5t143.5 59.5t59.5 143.5t-59.5 143.5t-143.5 59.5t-143.5 -59.5t-59.5 -143.5z" />
<glyph unicode="&#xb1;" horiz-adv-x="1228" d="M96 0v98h1037v-98h-1037zM96 561v98h469v377h99v-377h469v-98h-469v-377h-99v377h-469z" />
<glyph unicode="&#xb2;" horiz-adv-x="739" d="M57 582l6 75q125 115 179.5 166t143.5 142.5t126 154t37 109.5q0 66 -42 108.5t-108 42.5q-90 0 -135 -40t-74 -119h-90q18 96 94 168.5t216 72.5q117 0 177 -67.5t60 -149.5q0 -76 -54 -169t-228 -249l-185 -163h467l-6 -82h-584z" />
<glyph unicode="&#xb3;" horiz-adv-x="739" d="M61 604l7 90q68 -47 229 -47q117 0 181.5 50.5t64.5 131.5q0 55 -24.5 90t-74 49.5t-92.5 18.5t-110 4l6 82h26q121 0 196 56.5t75 127.5q0 51 -38 87t-114 36q-145 0 -180 -125h-90q0 4 4 22.5t22.5 51.5t46 61.5t83 50t124.5 21.5q119 0 176.5 -55t57.5 -131 q0 -96 -65.5 -154.5t-172.5 -77.5v-4q242 -23 242 -200q0 -113 -90 -194t-264 -81q-103 0 -226 39z" />
<glyph unicode="&#xb4;" horiz-adv-x="569" d="M254 1278l291 248l82 -56l-305 -249z" />
<glyph unicode="&#xb6;" horiz-adv-x="1228" d="M184 1028q2 190 123 298t299 108h361l-160 -1829h-98l151 1738h-215l-151 -1738h-99l92 1050q-135 0 -221 107.5t-82 265.5z" />
<glyph unicode="&#xb7;" horiz-adv-x="569" d="M170 598q0 47 34 81t81 34t80.5 -34t33.5 -81t-33.5 -81t-80.5 -34t-81 34t-34 81z" />
<glyph unicode="&#xb8;" horiz-adv-x="569" d="M117 -406l6 89q86 -29 158 -29q111 0 110 78q0 37 -32.5 54t-73.5 17q-12 0 -43 -6l16 203h90l-16 -131q174 0 174 -129q0 -70 -59.5 -123t-163.5 -53q-74 -1 -166 30z" />
<glyph unicode="&#xb9;" horiz-adv-x="739" d="M113 1288l290 158h82l-75 -782h180l-8 -82h-435l9 82h155l72 684l-244 -134z" />
<glyph unicode="&#xba;" horiz-adv-x="739" d="M121 1077q0 156 80 266.5t241 110.5q109 0 173.5 -71.5t64.5 -215.5q0 -160 -82 -264t-229 -104q-111 0 -179.5 66.5t-68.5 211.5zM219 1085q0 -90 37 -147t115 -57q109 0 160 89t51 193q0 102 -44 155.5t-108 53.5q-102 0 -156.5 -91.5t-54.5 -195.5z" />
<glyph unicode="&#xbb;" horiz-adv-x="948" d="M84 266l283 256l-236 277l76 65l262 -309l-8 -74l-311 -280zM444 266l283 256l-235 277l75 65l262 -309l-8 -74l-311 -280z" />
<glyph unicode="&#xbc;" horiz-adv-x="1708" d="M113 1288l290 158h82l-75 -782h180l-8 -82h-435l9 82h155l72 684l-244 -134zM344 -55l946 1587l76 -43l-946 -1587zM958 270l7 78l465 516h100l-47 -512h149l-6 -82h-151l-21 -188h105l-7 -82h-284l6 82h82l20 188h-418zM1067 352h317l43 389h-4z" />
<glyph unicode="&#xbd;" horiz-adv-x="1708" d="M113 1288l290 158h82l-75 -782h180l-8 -82h-435l9 82h155l72 684l-244 -134zM344 -55l946 1587l76 -43l-946 -1587zM1026 0l6 76q125 115 179.5 166t143.5 142t126 153.5t37 109.5q0 66 -42 109t-108 43q-90 0 -135 -40t-74 -120h-90q18 96 94 169t215 73 q117 0 177.5 -68t60.5 -149q0 -76 -54.5 -169.5t-228.5 -248.5l-184 -164h467l-6 -82h-584z" />
<glyph unicode="&#xbe;" horiz-adv-x="1708" d="M61 604l7 90q68 -47 229 -47q117 0 181.5 50.5t64.5 131.5q0 55 -24.5 90t-74 49.5t-92.5 18.5t-110 4l6 82h26q121 0 196 56.5t75 127.5q0 51 -38 87t-114 36q-145 0 -180 -125h-90q0 4 4 22.5t22.5 51.5t46 61.5t83 50t124.5 21.5q119 0 176.5 -55t57.5 -131 q0 -96 -65.5 -154.5t-172.5 -77.5v-4q242 -23 242 -200q0 -113 -90 -194t-264 -81q-103 0 -226 39zM344 -55l946 1587l76 -43l-946 -1587zM958 270l7 78l465 516h100l-47 -512h149l-6 -82h-151l-21 -188h105l-7 -82h-284l6 82h82l20 188h-418zM1067 352h317l43 389h-4z" />
<glyph unicode="&#xbf;" horiz-adv-x="985" d="M33 -186q0 121 62.5 209t131.5 135l140 94q84 57 112.5 77.5t53 52.5t24.5 64q0 29 -10 51.5t-30.5 48.5t-24.5 32l81 63q90 -96 91 -186q0 -18 -4.5 -37t-8.5 -32t-14 -29.5t-17.5 -27t-23.5 -25.5t-22.5 -22.5t-27 -21.5t-26.5 -18t-28.5 -19.5t-26.5 -17.5l-139 -92 q-186 -123 -187 -285q0 -115 79 -179.5t206 -64.5q131 0 219 39l21 -92q-135 -45 -254 -45q-182 0 -279.5 95t-97.5 233zM506 995q0 41 26.5 68t61.5 27q41 0 64.5 -23.5t23.5 -60.5q0 -45 -24.5 -76t-65.5 -31q-39 0 -62.5 28.5t-23.5 67.5z" />
<glyph unicode="&#xc0;" horiz-adv-x="1554" d="M18 0l9 90h143l616 1354h115l377 -1354h172l-8 -90h-422l8 90h133l-133 492h-532l-220 -492h173l-9 -90h-422zM537 672h467l-142 530q-25 96 -31 144h-4q-20 -61 -55 -144zM598 1767l82 58l254 -246l-69 -59z" />
<glyph unicode="&#xc1;" horiz-adv-x="1554" d="M18 0l9 90h143l616 1354h115l377 -1354h172l-8 -90h-422l8 90h133l-133 492h-532l-220 -492h173l-9 -90h-422zM537 672h467l-142 530q-25 96 -31 144h-4q-20 -61 -55 -144zM748 1577l291 248l82 -56l-305 -249z" />
<glyph unicode="&#xc2;" horiz-adv-x="1554" d="M18 0l9 90h143l616 1354h115l377 -1354h172l-8 -90h-422l8 90h133l-133 492h-532l-220 -492h173l-9 -90h-422zM537 672h467l-142 530q-25 96 -31 144h-4q-20 -61 -55 -144zM570 1610l264 207h86l231 -207l-82 -58l-200 191l-230 -191z" />
<glyph unicode="&#xc3;" horiz-adv-x="1554" d="M18 0l9 90h143l616 1354h115l377 -1354h172l-8 -90h-422l8 90h133l-133 492h-532l-220 -492h173l-9 -90h-422zM537 672h467l-142 530q-25 96 -31 144h-4q-20 -61 -55 -144zM551 1593q20 63 68.5 115.5t112.5 52.5q68 0 149 -57q84 -59 113 -59q33 0 55 21.5t51 66.5 l74 -56q-72 -131 -180 -131q-49 0 -138 60q-84 57 -118 57q-27 0 -48.5 -19.5t-30.5 -36t-24 -51.5z" />
<glyph unicode="&#xc4;" horiz-adv-x="1554" d="M18 0l9 90h143l616 1354h115l377 -1354h172l-8 -90h-422l8 90h133l-133 492h-532l-220 -492h173l-9 -90h-422zM537 672h467l-142 530q-25 96 -31 144h-4q-20 -61 -55 -144zM586 1667q0 35 21.5 64.5t68.5 29.5q31 0 50.5 -21.5t19.5 -54.5q0 -27 -19.5 -59.5t-62.5 -32.5 q-78 0 -78 74zM992 1667q0 35 21.5 64.5t68.5 29.5q31 0 50 -21.5t19 -54.5q0 -27 -19.5 -59.5t-62.5 -32.5q-78 0 -77 74z" />
<glyph unicode="&#xc5;" horiz-adv-x="1554" d="M18 0l9 90h143l616 1354h115l377 -1354h172l-8 -90h-422l8 90h133l-133 492h-532l-220 -492h173l-9 -90h-422zM537 672h467l-142 530q-25 96 -31 144h-4q-20 -61 -55 -144zM689 1655q0 80 53 143.5t141 63.5q70 0 116 -45t46 -127q0 -92 -54.5 -147.5t-140.5 -55.5 q-74 0 -117.5 49t-43.5 119zM770 1663q0 -43 25 -72.5t68 -29.5q51 0 75.5 37.5t24.5 84.5q0 104 -88 105q-47 0 -76 -37t-29 -88z" />
<glyph unicode="&#xc6;" horiz-adv-x="1933" d="M-2 0l8 90h131l817 1344h871l-25 -293h-90l8 202h-483l-51 -585h506l-9 -90h-503l-54 -578h576l29 201h90l-27 -291h-924l9 90h141l53 578h-475l-346 -578h172l-8 -90h-416zM645 758h432l51 585h-131z" />
<glyph unicode="&#xc7;" horiz-adv-x="1327" d="M125 647q0 88 16.5 184.5t67.5 213t131 205.5t219 150.5t320 61.5q141 0 344 -59l-9 -270h-98l8 202q-123 37 -252 37q-141 0 -253.5 -46t-182 -119.5t-116 -173t-63.5 -198t-17 -202.5q0 -272 148.5 -422t408.5 -150q143 0 254 43l20 195h90l-20 -268q-152 -51 -332 -60 l-16 -102q174 0 174 -129q0 -70 -59.5 -123t-164.5 -53q-74 0 -165 30l6 89q86 -29 157 -29q111 0 111 78q0 37 -33 54t-74 17q-12 0 -43 -6l17 174q-162 10 -282 71.5t-185.5 159t-96 208t-30.5 237.5z" />
<glyph unicode="&#xc8;" d="M66 0l8 90h139l111 1253h-170l8 91h889l-25 -291h-90l8 200h-514l-49 -555h526l-6 -90h-528l-54 -608h576l29 201h90l-27 -291h-921zM389 1767l82 58l254 -246l-69 -59z" />
<glyph unicode="&#xc9;" d="M66 0l8 90h139l111 1253h-170l8 91h889l-25 -291h-90l8 200h-514l-49 -555h526l-6 -90h-528l-54 -608h576l29 201h90l-27 -291h-921zM539 1577l291 248l82 -56l-305 -249z" />
<glyph unicode="&#xca;" d="M66 0l8 90h139l111 1253h-170l8 91h889l-25 -291h-90l8 200h-514l-49 -555h526l-6 -90h-528l-54 -608h576l29 201h90l-27 -291h-921zM361 1610l264 207h86l231 -207l-82 -58l-200 191l-230 -191z" />
<glyph unicode="&#xcb;" d="M66 0l8 90h139l111 1253h-170l8 91h889l-25 -291h-90l8 200h-514l-49 -555h526l-6 -90h-528l-54 -608h576l29 201h90l-27 -291h-921zM377 1667q0 35 21.5 64.5t68.5 29.5q31 0 50.5 -21.5t19.5 -54.5q0 -27 -19.5 -59.5t-62.5 -32.5q-78 0 -78 74zM783 1667 q0 35 21.5 64.5t68.5 29.5q31 0 50 -21.5t19 -54.5q0 -27 -19.5 -59.5t-62.5 -32.5q-78 0 -77 74z" />
<glyph unicode="&#xcc;" horiz-adv-x="643" d="M66 0l8 90h139l111 1253h-170l8 91h416l-9 -91h-139l-111 -1253h170l-8 -90h-415zM141 1767l82 58l254 -246l-69 -59z" />
<glyph unicode="&#xcd;" horiz-adv-x="643" d="M66 0l8 90h139l111 1253h-170l8 91h416l-9 -91h-139l-111 -1253h170l-8 -90h-415zM291 1577l291 248l82 -56l-305 -249z" />
<glyph unicode="&#xce;" horiz-adv-x="643" d="M66 0l8 90h139l111 1253h-170l8 91h416l-9 -91h-139l-111 -1253h170l-8 -90h-415zM113 1610l264 207h86l231 -207l-82 -58l-200 191l-230 -191z" />
<glyph unicode="&#xcf;" horiz-adv-x="643" d="M66 0l8 90h139l111 1253h-170l8 91h416l-9 -91h-139l-111 -1253h170l-8 -90h-415zM129 1667q0 35 21.5 64.5t68.5 29.5q31 0 50.5 -21.5t19.5 -54.5q0 -27 -19.5 -59.5t-62.5 -32.5q-78 0 -78 74zM535 1667q0 35 21.5 64.5t68.5 29.5q31 0 50 -21.5t19 -54.5 q0 -27 -19.5 -59.5t-62.5 -32.5q-78 0 -77 74z" />
<glyph unicode="&#xd0;" horiz-adv-x="1478" d="M66 0l8 90h139l53 608h-151l8 90h151l50 555h-170l8 91h536q205 0 307.5 -33t170.5 -88q205 -166 204 -498q0 -291 -155 -514q-209 -301 -619 -301h-540zM319 90h291q377 0 543 299q113 201 113 440q0 213 -103 345q-70 90 -163 129.5t-255 39.5h-315l-49 -555h420 l-8 -90h-420z" />
<glyph unicode="&#xd1;" horiz-adv-x="1554" d="M49 0l8 90h146l104 1253h-164l9 91h245l703 -1172q8 -14 17 -30.5t17.5 -33t12.5 -22.5h4l102 1167h-182l8 91h426l-8 -91h-145l-117 -1343h-98l-703 1174q-23 41 -35 71h-4l-94 -1155h182l-8 -90h-426zM551 1593q20 63 68.5 115.5t112.5 52.5q68 0 149 -57 q84 -59 113 -59q33 0 55 21.5t51 66.5l74 -56q-72 -131 -180 -131q-49 0 -138 60q-84 57 -118 57q-27 0 -48.5 -19.5t-30.5 -36t-24 -51.5z" />
<glyph unicode="&#xd2;" horiz-adv-x="1478" d="M125 618q0 393 190.5 618.5t491.5 225.5q262 0 404.5 -172t142.5 -463q0 -164 -38 -311t-114 -272t-210 -199t-308 -74q-279 0 -419 180t-140 467zM240 618q0 -240 92 -374q123 -182 358 -183q121 0 235.5 63.5t180.5 170.5q74 121 103.5 242.5t29.5 300.5 q0 238 -109.5 386t-328.5 148q-127 0 -226.5 -48t-161 -123t-102.5 -177t-56 -202t-15 -204zM559 1767l82 58l254 -246l-69 -59z" />
<glyph unicode="&#xd3;" horiz-adv-x="1478" d="M125 618q0 393 190.5 618.5t491.5 225.5q262 0 404.5 -172t142.5 -463q0 -164 -38 -311t-114 -272t-210 -199t-308 -74q-279 0 -419 180t-140 467zM240 618q0 -240 92 -374q123 -182 358 -183q121 0 235.5 63.5t180.5 170.5q74 121 103.5 242.5t29.5 300.5 q0 238 -109.5 386t-328.5 148q-127 0 -226.5 -48t-161 -123t-102.5 -177t-56 -202t-15 -204zM709 1577l291 248l82 -56l-305 -249z" />
<glyph unicode="&#xd4;" horiz-adv-x="1478" d="M125 618q0 393 190.5 618.5t491.5 225.5q262 0 404.5 -172t142.5 -463q0 -164 -38 -311t-114 -272t-210 -199t-308 -74q-279 0 -419 180t-140 467zM240 618q0 -240 92 -374q123 -182 358 -183q121 0 235.5 63.5t180.5 170.5q74 121 103.5 242.5t29.5 300.5 q0 238 -109.5 386t-328.5 148q-127 0 -226.5 -48t-161 -123t-102.5 -177t-56 -202t-15 -204zM531 1610l264 207h86l231 -207l-82 -58l-200 191l-230 -191z" />
<glyph unicode="&#xd5;" horiz-adv-x="1478" d="M125 618q0 393 190.5 618.5t491.5 225.5q262 0 404.5 -172t142.5 -463q0 -164 -38 -311t-114 -272t-210 -199t-308 -74q-279 0 -419 180t-140 467zM240 618q0 -240 92 -374q123 -182 358 -183q121 0 235.5 63.5t180.5 170.5q74 121 103.5 242.5t29.5 300.5 q0 238 -109.5 386t-328.5 148q-127 0 -226.5 -48t-161 -123t-102.5 -177t-56 -202t-15 -204zM512 1593q20 63 68.5 115.5t112.5 52.5q68 0 149 -57q84 -59 113 -59q33 0 55 21.5t51 66.5l74 -56q-72 -131 -180 -131q-49 0 -138 60q-84 57 -118 57q-27 0 -48.5 -19.5 t-30.5 -36t-24 -51.5z" />
<glyph unicode="&#xd6;" horiz-adv-x="1478" d="M125 618q0 393 190.5 618.5t491.5 225.5q262 0 404.5 -172t142.5 -463q0 -164 -38 -311t-114 -272t-210 -199t-308 -74q-279 0 -419 180t-140 467zM240 618q0 -240 92 -374q123 -182 358 -183q121 0 235.5 63.5t180.5 170.5q74 121 103.5 242.5t29.5 300.5 q0 238 -109.5 386t-328.5 148q-127 0 -226.5 -48t-161 -123t-102.5 -177t-56 -202t-15 -204zM547 1667q0 35 21.5 64.5t68.5 29.5q31 0 50.5 -21.5t19.5 -54.5q0 -27 -19.5 -59.5t-62.5 -32.5q-78 0 -78 74zM953 1667q0 35 21.5 64.5t68.5 29.5q31 0 50 -21.5t19 -54.5 q0 -27 -19.5 -59.5t-62.5 -32.5q-78 0 -77 74z" />
<glyph unicode="&#xd7;" horiz-adv-x="1228" d="M154 125l391 391l-391 391l69 70l391 -391l392 391l69 -70l-391 -391l391 -391l-69 -70l-392 391l-391 -391z" />
<glyph unicode="&#xd8;" horiz-adv-x="1478" d="M104 -154l187 279q-166 168 -166 493q0 393 190.5 618.5t491.5 225.5q184 0 317 -92l179 264l71 -47l-182 -274q162 -172 162 -486q0 -164 -38 -311t-114 -272t-210 -199t-308 -74q-197 0 -328 97l-180 -269zM240 618q0 -240 92 -374q10 -15 20 -27l717 1069 q-104 86 -268 86q-127 0 -226.5 -48t-161 -123t-102.5 -177t-56 -201.5t-15 -204.5zM414 156q117 -94 276 -95q121 0 235.5 63.5t180.5 170.5q74 121 103.5 242.5t29.5 300.5q0 246 -109 385z" />
<glyph unicode="&#xd9;" horiz-adv-x="1478" d="M125 1343l8 91h414l-8 -91h-138l-61 -663q-20 -219 -21 -313q0 -305 359 -306q68 0 125 10.5t99 25t76 42t56.5 50t40 61.5t26.5 63.5t16 69.5t9 65.5t7 63.5l71 831h-182l8 91h414l-8 -91h-142l-71 -843q-25 -268 -117 -369q-150 -160 -434 -160q-459 0 -459 400 q0 39 20 280l62 692h-170zM559 1767l82 58l254 -246l-69 -59z" />
<glyph unicode="&#xda;" horiz-adv-x="1478" d="M125 1343l8 91h414l-8 -91h-138l-61 -663q-20 -219 -21 -313q0 -305 359 -306q68 0 125 10.5t99 25t76 42t56.5 50t40 61.5t26.5 63.5t16 69.5t9 65.5t7 63.5l71 831h-182l8 91h414l-8 -91h-142l-71 -843q-25 -268 -117 -369q-150 -160 -434 -160q-459 0 -459 400 q0 39 20 280l62 692h-170zM709 1577l291 248l82 -56l-305 -249z" />
<glyph unicode="&#xdb;" horiz-adv-x="1478" d="M125 1343l8 91h414l-8 -91h-138l-61 -663q-20 -219 -21 -313q0 -305 359 -306q68 0 125 10.5t99 25t76 42t56.5 50t40 61.5t26.5 63.5t16 69.5t9 65.5t7 63.5l71 831h-182l8 91h414l-8 -91h-142l-71 -843q-25 -268 -117 -369q-150 -160 -434 -160q-459 0 -459 400 q0 39 20 280l62 692h-170zM531 1610l264 207h86l231 -207l-82 -58l-200 191l-230 -191z" />
<glyph unicode="&#xdc;" horiz-adv-x="1478" d="M125 1343l8 91h414l-8 -91h-138l-61 -663q-20 -219 -21 -313q0 -305 359 -306q68 0 125 10.5t99 25t76 42t56.5 50t40 61.5t26.5 63.5t16 69.5t9 65.5t7 63.5l71 831h-182l8 91h414l-8 -91h-142l-71 -843q-25 -268 -117 -369q-150 -160 -434 -160q-459 0 -459 400 q0 39 20 280l62 692h-170zM547 1667q0 35 21.5 64.5t68.5 29.5q31 0 50.5 -21.5t19.5 -54.5q0 -27 -19.5 -59.5t-62.5 -32.5q-78 0 -78 74zM953 1667q0 35 21.5 64.5t68.5 29.5q31 0 50 -21.5t19 -54.5q0 -27 -19.5 -59.5t-62.5 -32.5q-78 0 -77 74z" />
<glyph unicode="&#xdd;" horiz-adv-x="1366" d="M45 1343l8 91h414l-8 -91h-133q8 -8 32 -49l330 -598l426 598q20 33 41 49h-174l8 91h420l-8 -91h-146l-526 -731l-45 -522h172l-8 -90h-420l8 90h142l45 518l-410 735h-168zM653 1577l291 248l82 -56l-305 -249z" />
<glyph unicode="&#xde;" horiz-adv-x="1099" d="M66 0l8 90h139l111 1253h-170l8 91h432l-8 -91h-156l-16 -176h137q170 0 274 -47q188 -84 189 -321q0 -211 -133 -336t-398 -125q-88 0 -141 8l-23 -256h187l-8 -90h-432zM350 428q66 -8 133 -8q119 0 206 33.5t132 90t65.5 117t20.5 125.5q0 291 -342 291h-157z" />
<glyph unicode="&#xdf;" horiz-adv-x="1214" d="M-279 -504l9 90q94 -35 164 -35q143 0 202.5 99.5t73.5 316.5l80 1139q16 231 133 358t334 127q176 0 272 -75.5t96 -186.5q0 -78 -45 -146.5t-109.5 -116.5t-129 -91t-109.5 -91t-45 -98q0 -57 48 -99t116 -72.5t136.5 -66.5t116.5 -98.5t48 -150.5q0 -147 -105.5 -233 t-242.5 -86q-166 0 -287 43l8 249h99l-9 -176q76 -27 166 -26q70 0 121 17t78 41t42 57.5t19.5 58t4.5 51.5q0 68 -48.5 115t-116 77.5t-136 63.5t-116.5 90t-48 137q0 72 45 131.5t109.5 102.5l129 86t109.5 100t45 125q0 90 -82 134t-184 44q-94 0 -163 -33.5 t-105.5 -77.5t-59.5 -117t-30 -119t-11 -116l-70 -1007q-6 -76 -8 -108t-10 -99.5t-19.5 -99t-30 -83t-45 -77t-62.5 -53t-86 -39t-111 -11.5q-72 0 -181 35z" />
<glyph unicode="&#xe0;" horiz-adv-x="1099" d="M106 360q0 139 31 262t92.5 226.5t170 164t249.5 60.5q100 0 199 -39h59q-23 -111 -41 -338l-49 -606h168l-8 -90h-266l51 467q2 16 22 115h-4q-29 -106 -30 -115q-29 -86 -65 -163t-86 -154.5t-119.5 -123.5t-145.5 -46q-227 0 -228 380zM213 362q0 -285 135 -284 q121 0 248 207t190 604l11 63q-98 39 -172 39q-197 0 -310 -184q-102 -176 -102 -445zM370 1468l82 58l254 -246l-69 -59z" />
<glyph unicode="&#xe1;" horiz-adv-x="1099" d="M106 360q0 139 31 262t92.5 226.5t170 164t249.5 60.5q100 0 199 -39h59q-23 -111 -41 -338l-49 -606h168l-8 -90h-266l51 467q2 16 22 115h-4q-29 -106 -30 -115q-29 -86 -65 -163t-86 -154.5t-119.5 -123.5t-145.5 -46q-227 0 -228 380zM213 362q0 -285 135 -284 q121 0 248 207t190 604l11 63q-98 39 -172 39q-197 0 -310 -184q-102 -176 -102 -445zM520 1278l291 248l82 -56l-305 -249z" />
<glyph unicode="&#xe2;" horiz-adv-x="1099" d="M106 360q0 139 31 262t92.5 226.5t170 164t249.5 60.5q100 0 199 -39h59q-23 -111 -41 -338l-49 -606h168l-8 -90h-266l51 467q2 16 22 115h-4q-29 -106 -30 -115q-29 -86 -65 -163t-86 -154.5t-119.5 -123.5t-145.5 -46q-227 0 -228 380zM213 362q0 -285 135 -284 q121 0 248 207t190 604l11 63q-98 39 -172 39q-197 0 -310 -184q-102 -176 -102 -445zM342 1311l264 207h86l231 -207l-82 -58l-200 191l-230 -191z" />
<glyph unicode="&#xe3;" horiz-adv-x="1099" d="M106 360q0 139 31 262t92.5 226.5t170 164t249.5 60.5q100 0 199 -39h59q-23 -111 -41 -338l-49 -606h168l-8 -90h-266l51 467q2 16 22 115h-4q-29 -106 -30 -115q-29 -86 -65 -163t-86 -154.5t-119.5 -123.5t-145.5 -46q-227 0 -228 380zM213 362q0 -285 135 -284 q121 0 248 207t190 604l11 63q-98 39 -172 39q-197 0 -310 -184q-102 -176 -102 -445zM323 1294q20 63 68.5 115.5t112.5 52.5q68 0 149 -57q84 -59 113 -59q33 0 55 21.5t51 66.5l74 -56q-72 -131 -180 -131q-49 0 -138 60q-84 57 -118 57q-27 0 -48.5 -19.5t-30.5 -36 t-24 -51.5z" />
<glyph unicode="&#xe4;" horiz-adv-x="1099" d="M106 360q0 139 31 262t92.5 226.5t170 164t249.5 60.5q100 0 199 -39h59q-23 -111 -41 -338l-49 -606h168l-8 -90h-266l51 467q2 16 22 115h-4q-29 -106 -30 -115q-29 -86 -65 -163t-86 -154.5t-119.5 -123.5t-145.5 -46q-227 0 -228 380zM213 362q0 -285 135 -284 q121 0 248 207t190 604l11 63q-98 39 -172 39q-197 0 -310 -184q-102 -176 -102 -445zM358 1368q0 35 21.5 64.5t68.5 29.5q31 0 50.5 -21.5t19.5 -54.5q0 -27 -19.5 -59.5t-62.5 -32.5q-78 0 -78 74zM764 1368q0 35 21.5 64.5t68.5 29.5q31 0 50 -21.5t19 -54.5 q0 -27 -19.5 -59.5t-62.5 -32.5q-78 0 -77 74z" />
<glyph unicode="&#xe5;" horiz-adv-x="1099" d="M106 360q0 139 31 262t92.5 226.5t170 164t249.5 60.5q100 0 199 -39h59q-23 -111 -41 -338l-49 -606h168l-8 -90h-266l51 467q2 16 22 115h-4q-29 -106 -30 -115q-29 -86 -65 -163t-86 -154.5t-119.5 -123.5t-145.5 -46q-227 0 -228 380zM213 362q0 -285 135 -284 q121 0 248 207t190 604l11 63q-98 39 -172 39q-197 0 -310 -184q-102 -176 -102 -445zM461 1356q0 80 53 143.5t141 63.5q70 0 116 -45t46 -127q0 -92 -54.5 -147.5t-140.5 -55.5q-74 0 -117.5 49t-43.5 119zM542 1364q0 -43 25 -72.5t68 -29.5q51 0 75.5 37.5t24.5 84.5 q0 104 -88 105q-47 0 -76 -37t-29 -88z" />
<glyph unicode="&#xe6;" horiz-adv-x="1478" d="M106 377q0 326 162 530q131 166 324 166q133 0 278 -117q109 117 281 117q123 0 190.5 -63.5t67.5 -165.5q0 -88 -40 -159t-100.5 -115t-141 -74.5t-154.5 -44t-150 -17.5q0 -63 2 -99t15.5 -93.5t38 -90t76 -57t122.5 -24.5q115 0 271 84l-17 -109q-150 -66 -284 -65 q-96 0 -164 33.5t-99.5 88t-45 105.5t-13.5 104q0 41 8 90h-4q-14 -57 -44 -121.5t-76 -136t-115.5 -117.5t-147.5 -46q-68 0 -117 37.5t-74.5 99t-37 126t-11.5 134.5zM213 381q0 -152 43 -227.5t106 -75.5q106 0 210 158.5t149 373.5l63 310q-102 63 -206 63 q-96 0 -175 -62.5t-122 -170.5q-68 -168 -68 -369zM823 516q201 18 340.5 97t139.5 216q0 68 -42.5 111t-132.5 43q-121 0 -198 -78q-49 -49 -69.5 -133t-37.5 -256z" />
<glyph unicode="&#xe7;" horiz-adv-x="833" d="M63 449q0 266 127 445t373 179q92 0 219 -35l-24 -247h-90l8 178q-37 14 -105 14q-203 0 -302 -152.5t-99 -373.5q0 -166 64.5 -272.5t214.5 -106.5q121 0 276 86l-8 -107q-119 -70 -256 -77l-17 -111q174 0 174 -129q0 -70 -59 -123t-164 -53q-74 -1 -166 30l7 89 q86 -29 157 -29q111 0 111 78q0 37 -33 54t-74 17q-12 0 -43 -6l17 191q-113 16 -184.5 90t-97.5 166t-26 205z" />
<glyph unicode="&#xe8;" horiz-adv-x="909" d="M92 420q0 119 29 230.5t86 208.5t156.5 155.5t226.5 58.5q119 0 185.5 -60.5t66.5 -164.5q0 -102 -63.5 -184t-166 -130.5t-205 -76t-208.5 -39.5q0 -49 2 -80t15 -88t40 -91t81 -61.5t130 -27.5q123 0 295 96l-8 -105q-143 -82 -301 -81q-199 0 -280 114.5t-81 325.5z M199 508q229 18 382.5 108.5t153.5 223.5q0 55 -38 99t-128 44q-156 0 -255 -134t-115 -341zM315 1468l82 58l254 -246l-69 -59z" />
<glyph unicode="&#xe9;" horiz-adv-x="909" d="M92 420q0 119 29 230.5t86 208.5t156.5 155.5t226.5 58.5q119 0 185.5 -60.5t66.5 -164.5q0 -102 -63.5 -184t-166 -130.5t-205 -76t-208.5 -39.5q0 -49 2 -80t15 -88t40 -91t81 -61.5t130 -27.5q123 0 295 96l-8 -105q-143 -82 -301 -81q-199 0 -280 114.5t-81 325.5z M199 508q229 18 382.5 108.5t153.5 223.5q0 55 -38 99t-128 44q-156 0 -255 -134t-115 -341zM465 1278l291 248l82 -56l-305 -249z" />
<glyph unicode="&#xea;" horiz-adv-x="909" d="M92 420q0 119 29 230.5t86 208.5t156.5 155.5t226.5 58.5q119 0 185.5 -60.5t66.5 -164.5q0 -102 -63.5 -184t-166 -130.5t-205 -76t-208.5 -39.5q0 -49 2 -80t15 -88t40 -91t81 -61.5t130 -27.5q123 0 295 96l-8 -105q-143 -82 -301 -81q-199 0 -280 114.5t-81 325.5z M199 508q229 18 382.5 108.5t153.5 223.5q0 55 -38 99t-128 44q-156 0 -255 -134t-115 -341zM287 1311l264 207h86l231 -207l-82 -58l-200 191l-230 -191z" />
<glyph unicode="&#xeb;" horiz-adv-x="909" d="M92 420q0 119 29 230.5t86 208.5t156.5 155.5t226.5 58.5q119 0 185.5 -60.5t66.5 -164.5q0 -102 -63.5 -184t-166 -130.5t-205 -76t-208.5 -39.5q0 -49 2 -80t15 -88t40 -91t81 -61.5t130 -27.5q123 0 295 96l-8 -105q-143 -82 -301 -81q-199 0 -280 114.5t-81 325.5z M199 508q229 18 382.5 108.5t153.5 223.5q0 55 -38 99t-128 44q-156 0 -255 -134t-115 -341zM303 1368q0 35 21.5 64.5t68.5 29.5q31 0 50.5 -21.5t19.5 -54.5q0 -27 -19.5 -59.5t-62.5 -32.5q-78 0 -78 74zM709 1368q0 35 21.5 64.5t68.5 29.5q31 0 50 -21.5t19 -54.5 q0 -27 -19.5 -59.5t-62.5 -32.5q-78 0 -77 74z" />
<glyph unicode="&#xec;" horiz-adv-x="569" d="M100 963l9 90h272l-86 -963h174l-8 -90h-273l86 963h-174zM104 1468l82 58l254 -246l-69 -59z" />
<glyph unicode="&#xed;" horiz-adv-x="569" d="M100 963l9 90h272l-86 -963h174l-8 -90h-273l86 963h-174zM254 1278l291 248l82 -56l-305 -249z" />
<glyph unicode="&#xee;" horiz-adv-x="569" d="M56 1311l264 207h86l231 -207l-82 -58l-200 191l-230 -191zM100 963l9 90h272l-86 -963h174l-8 -90h-273l86 963h-174z" />
<glyph unicode="&#xef;" horiz-adv-x="569" d="M92 1368q0 35 21.5 64.5t68.5 29.5q31 0 50.5 -21.5t19.5 -54.5q0 -27 -19.5 -59.5t-62.5 -32.5q-78 0 -78 74zM100 963l9 90h272l-86 -963h174l-8 -90h-273l86 963h-174zM498 1368q0 35 21.5 64.5t68.5 29.5q31 0 50 -21.5t19 -54.5q0 -27 -19.5 -59.5t-62.5 -32.5 q-78 0 -77 74z" />
<glyph unicode="&#xf0;" horiz-adv-x="985" d="M63 451q0 160 45.5 295t157 231t275.5 96q145 0 217 -115l4 5q-35 215 -172 376l-221 -106l-56 61l222 107q-68 72 -181 141l86 49q104 -63 187 -145l211 100l55 -61l-209 -101q115 -131 162 -319t47 -463q0 -270 -123 -446t-342 -176q-160 0 -262.5 112.5t-102.5 358.5z M170 444q0 -164 61.5 -269t200.5 -105q96 0 169 50t111 131t56 167t18 176q0 195 -72.5 292t-191.5 97q-92 0 -162.5 -49t-110.5 -130t-59.5 -172.5t-19.5 -187.5z" />
<glyph unicode="&#xf1;" d="M63 963l9 90h286l-41 -359q-4 -43 -10 -84t-14 -88t-12 -73h4q4 14 11 43.5t11 44.5q23 78 58.5 159.5t93 171.5t140.5 147.5t175 57.5q176 0 176 -248q0 -150 -78 -735h170l-8 -90h-276q94 639 94 819q0 156 -102 156q-39 0 -86.5 -23.5t-108.5 -92t-116.5 -172 t-106.5 -283t-80 -404.5h-98q31 233 51 455l45 508h-187zM321 1294q20 63 68.5 115.5t112.5 52.5q68 0 149 -57q84 -59 113 -59q33 0 55 21.5t51 66.5l74 -56q-72 -131 -180 -131q-49 0 -138 60q-84 57 -118 57q-27 0 -48.5 -19.5t-30.5 -36t-24 -51.5z" />
<glyph unicode="&#xf2;" horiz-adv-x="985" d="M63 451q0 160 45.5 295t157 231t275.5 96q158 0 255 -118.5t97 -352.5q0 -270 -123 -446t-342 -176q-160 0 -262.5 112.5t-102.5 358.5zM170 444q0 -162 63.5 -268t198.5 -106q96 0 169 50t111 131t56 167t18 176q0 195 -72.5 292t-191.5 97q-92 0 -162.5 -49 t-110.5 -130t-59.5 -172.5t-19.5 -187.5zM313 1468l82 58l254 -246l-69 -59z" />
<glyph unicode="&#xf3;" horiz-adv-x="985" d="M63 451q0 160 45.5 295t157 231t275.5 96q158 0 255 -118.5t97 -352.5q0 -270 -123 -446t-342 -176q-160 0 -262.5 112.5t-102.5 358.5zM170 444q0 -162 63.5 -268t198.5 -106q96 0 169 50t111 131t56 167t18 176q0 195 -72.5 292t-191.5 97q-92 0 -162.5 -49 t-110.5 -130t-59.5 -172.5t-19.5 -187.5zM463 1278l291 248l82 -56l-305 -249z" />
<glyph unicode="&#xf4;" horiz-adv-x="985" d="M63 451q0 160 45.5 295t157 231t275.5 96q158 0 255 -118.5t97 -352.5q0 -270 -123 -446t-342 -176q-160 0 -262.5 112.5t-102.5 358.5zM170 444q0 -162 63.5 -268t198.5 -106q96 0 169 50t111 131t56 167t18 176q0 195 -72.5 292t-191.5 97q-92 0 -162.5 -49 t-110.5 -130t-59.5 -172.5t-19.5 -187.5zM285 1311l264 207h86l231 -207l-82 -58l-200 191l-230 -191z" />
<glyph unicode="&#xf5;" horiz-adv-x="985" d="M63 451q0 160 45.5 295t157 231t275.5 96q158 0 255 -118.5t97 -352.5q0 -270 -123 -446t-342 -176q-160 0 -262.5 112.5t-102.5 358.5zM170 444q0 -162 63.5 -268t198.5 -106q96 0 169 50t111 131t56 167t18 176q0 195 -72.5 292t-191.5 97q-92 0 -162.5 -49 t-110.5 -130t-59.5 -172.5t-19.5 -187.5zM266 1294q20 63 68.5 115.5t112.5 52.5q68 0 149 -57q84 -59 113 -59q33 0 55 21.5t51 66.5l74 -56q-72 -131 -180 -131q-49 0 -138 60q-84 57 -118 57q-27 0 -48.5 -19.5t-30.5 -36t-24 -51.5z" />
<glyph unicode="&#xf6;" horiz-adv-x="985" d="M63 451q0 160 45.5 295t157 231t275.5 96q158 0 255 -118.5t97 -352.5q0 -270 -123 -446t-342 -176q-160 0 -262.5 112.5t-102.5 358.5zM170 444q0 -162 63.5 -268t198.5 -106q96 0 169 50t111 131t56 167t18 176q0 195 -72.5 292t-191.5 97q-92 0 -162.5 -49 t-110.5 -130t-59.5 -172.5t-19.5 -187.5zM301 1368q0 35 21.5 64.5t68.5 29.5q31 0 50.5 -21.5t19.5 -54.5q0 -27 -19.5 -59.5t-62.5 -32.5q-78 0 -78 74zM707 1368q0 35 21.5 64.5t68.5 29.5q31 0 50 -21.5t19 -54.5q0 -27 -19.5 -59.5t-62.5 -32.5q-78 0 -77 74z" />
<glyph unicode="&#xf7;" horiz-adv-x="1228" d="M96 469v98h1037v-98h-1037zM500 90q0 47 33.5 81t81 34t81 -34t33.5 -81t-33.5 -81t-81 -34t-81 34t-33.5 81zM500 946q0 47 33.5 81t81 34t81 -34t33.5 -81t-33.5 -81t-81 -34t-81 34t-33.5 81z" />
<glyph unicode="&#xf8;" horiz-adv-x="985" d="M0 -121l156 232q-92 117 -93 340q0 160 45.5 295t157 231t275.5 96q125 0 209 -72l145 218l61 -41l-155 -232q92 -121 92 -344q0 -270 -123 -446t-342 -176q-135 0 -219 75l-148 -221zM170 444q0 -147 49 -239l471 708q-63 70 -168 70q-92 0 -162.5 -49t-110.5 -130 t-59.5 -172t-19.5 -188zM264 139q63 -70 168 -69q96 0 169 50t111 131t56 167t18 176q0 156 -51 254z" />
<glyph unicode="&#xf9;" horiz-adv-x="1175" d="M106 963l9 90h276q-94 -639 -94 -820q0 -156 102 -155q39 0 86 23.5t108.5 92t117 172t106.5 282.5t80 405h98q-31 -233 -51 -455l-45 -508h186l-8 -90h-286l40 350q6 47 20.5 131t18.5 113h-4q-10 -53 -35 -129q-18 -61 -54 -134t-93 -157t-139 -139t-170 -55 q-176 0 -176 247q0 150 77 736h-170zM407 1468l82 58l254 -246l-69 -59z" />
<glyph unicode="&#xfa;" horiz-adv-x="1175" d="M106 963l9 90h276q-94 -639 -94 -820q0 -156 102 -155q39 0 86 23.5t108.5 92t117 172t106.5 282.5t80 405h98q-31 -233 -51 -455l-45 -508h186l-8 -90h-286l40 350q6 47 20.5 131t18.5 113h-4q-10 -53 -35 -129q-18 -61 -54 -134t-93 -157t-139 -139t-170 -55 q-176 0 -176 247q0 150 77 736h-170zM557 1278l291 248l82 -56l-305 -249z" />
<glyph unicode="&#xfb;" horiz-adv-x="1175" d="M106 963l9 90h276q-94 -639 -94 -820q0 -156 102 -155q39 0 86 23.5t108.5 92t117 172t106.5 282.5t80 405h98q-31 -233 -51 -455l-45 -508h186l-8 -90h-286l40 350q6 47 20.5 131t18.5 113h-4q-10 -53 -35 -129q-18 -61 -54 -134t-93 -157t-139 -139t-170 -55 q-176 0 -176 247q0 150 77 736h-170zM359 1311l264 207h86l231 -207l-82 -58l-200 191l-230 -191z" />
<glyph unicode="&#xfc;" horiz-adv-x="1175" d="M106 963l9 90h276q-94 -639 -94 -820q0 -156 102 -155q39 0 86 23.5t108.5 92t117 172t106.5 282.5t80 405h98q-31 -233 -51 -455l-45 -508h186l-8 -90h-286l40 350q6 47 20.5 131t18.5 113h-4q-10 -53 -35 -129q-18 -61 -54 -134t-93 -157t-139 -139t-170 -55 q-176 0 -176 247q0 150 77 736h-170zM375 1368q0 35 21.5 64.5t68.5 29.5q31 0 50.5 -21.5t19.5 -54.5q0 -27 -19.5 -59.5t-62.5 -32.5q-78 0 -78 74zM781 1368q0 35 21.5 64.5t68.5 29.5q31 0 50 -21.5t19 -54.5q0 -27 -19.5 -59.5t-62.5 -32.5q-78 0 -77 74z" />
<glyph unicode="&#xfd;" horiz-adv-x="1062" d="M-10 -524l14 90q45 -14 90 -15q57 0 102.5 18.5t77 44.5t67.5 84t60.5 110.5t67.5 148.5l-270 1006h-154l8 90h238l209 -828q12 -53 28 -145h4q14 45 48 135l282 748h-178l8 90h287l-8 -66q-27 -82 -73 -205t-136 -351t-148 -376q-131 -340 -241.5 -467t-282.5 -127 q-61 0 -100 15zM502 1278l291 248l82 -56l-305 -249z" />
<glyph unicode="&#xfe;" horiz-adv-x="1099" d="M-23 -514l9 90h141l170 1909h-197l9 90h299l-70 -752q-10 -123 -49 -338h4q4 12 13 52.5t16 62.5q66 203 178 338t260 135q70 0 119 -37t72.5 -99.5t32.5 -123.5t9 -129q0 -170 -55 -324.5t-178 -263t-291 -108.5q-121 0 -201 26l-43 -438h176l-8 -90h-416zM274 106 q121 -37 183 -36q117 0 204 58t134 154.5t69.5 204t22.5 224.5q0 272 -152 272q-129 0 -269 -239.5t-171 -485.5q-2 -25 -9 -76t-12 -76z" />
<glyph unicode="&#xff;" horiz-adv-x="1062" d="M-10 -524l14 90q45 -14 90 -15q57 0 102.5 18.5t77 44.5t67.5 84t60.5 110.5t67.5 148.5l-270 1006h-154l8 90h238l209 -828q12 -53 28 -145h4q14 45 48 135l282 748h-178l8 90h287l-8 -66q-27 -82 -73 -205t-136 -351t-148 -376q-131 -340 -241.5 -467t-282.5 -127 q-61 0 -100 15zM299 1368q0 35 21.5 64.5t68.5 29.5q31 0 50.5 -21.5t19.5 -54.5q0 -27 -19.5 -59.5t-62.5 -32.5q-78 0 -78 74zM705 1368q0 35 21.5 64.5t68.5 29.5q31 0 50 -21.5t19 -54.5q0 -27 -19.5 -59.5t-62.5 -32.5q-78 0 -77 74z" />
<glyph unicode="&#x152;" horiz-adv-x="1933" d="M125 631q0 354 193.5 584.5t523.5 230.5q76 0 145.5 -6t153.5 -6h704l-24 -291h-90l8 200h-527l-49 -555h537l-8 -90h-537l-53 -608h588l28 201h90l-26 -291h-678q-98 0 -242 -8q-70 -4 -108 -4q-629 0 -629 643zM240 643q0 -117 22.5 -210t54 -150.5t85 -99.5 t95.5 -61.5t106.5 -30.5t96 -12t84.5 -1q117 0 211 12l111 1262q-23 0 -115 6t-139 6q-131 0 -238 -43q-178 -72 -276 -253t-98 -425z" />
<glyph unicode="&#x153;" horiz-adv-x="1517" d="M70 436q0 145 43 285.5t125 228.5q115 123 297 123q133 0 199.5 -88t72.5 -186h4q98 274 371 274q127 0 196.5 -63.5t69.5 -163.5q0 -109 -61.5 -192t-161 -127t-197.5 -66.5t-199 -26.5q0 -39 1 -60.5t5.5 -66.5t13.5 -71.5t27.5 -61.5t45 -55.5t69.5 -34.5t96 -14 q111 0 283 80l-10 -103q-164 -68 -295 -67q-156 0 -235.5 88t-79.5 182h-5q-16 -92 -98 -181t-213 -89q-158 0 -261 110.5t-103 345.5zM176 444q0 -164 60.5 -269t195.5 -105q100 0 182 80.5t101 228.5q25 197 24 319q0 133 -58 209t-167 76q-117 0 -196.5 -87t-110.5 -203 t-31 -249zM829 516q84 6 163 22.5t163 50.5t135 94t51 142q0 59 -43 108.5t-129 49.5q-119 0 -199.5 -74.5t-110.5 -175t-30 -217.5z" />
<glyph unicode="&#x178;" horiz-adv-x="1366" d="M45 1343l8 91h414l-8 -91h-133q8 -8 32 -49l330 -598l426 598q20 33 41 49h-174l8 91h420l-8 -91h-146l-526 -731l-45 -522h172l-8 -90h-420l8 90h142l45 518l-410 735h-168zM491 1667q0 35 21.5 64.5t68.5 29.5q31 0 50.5 -21.5t19.5 -54.5q0 -27 -19.5 -59.5 t-62.5 -32.5q-78 0 -78 74zM897 1667q0 35 21.5 64.5t68.5 29.5q31 0 50 -21.5t19 -54.5q0 -27 -19.5 -59.5t-62.5 -32.5q-78 0 -77 74z" />
<glyph unicode="&#x2c6;" horiz-adv-x="569" d="M76 1311l264 207h86l231 -207l-82 -58l-200 191l-230 -191z" />
<glyph unicode="&#x2dc;" horiz-adv-x="569" d="M57 1294q20 63 68.5 115.5t112.5 52.5q68 0 149 -57q84 -59 113 -59q33 0 55 21.5t51 66.5l74 -56q-72 -131 -180 -131q-49 0 -138 60q-84 57 -118 57q-27 0 -48.5 -19.5t-30.5 -36t-24 -51.5z" />
<glyph unicode="&#x2000;" horiz-adv-x="931" />
<glyph unicode="&#x2001;" horiz-adv-x="1862" />
<glyph unicode="&#x2002;" horiz-adv-x="931" />
<glyph unicode="&#x2003;" horiz-adv-x="1862" />
<glyph unicode="&#x2004;" horiz-adv-x="620" />
<glyph unicode="&#x2005;" horiz-adv-x="465" />
<glyph unicode="&#x2006;" horiz-adv-x="310" />
<glyph unicode="&#x2007;" horiz-adv-x="310" />
<glyph unicode="&#x2008;" horiz-adv-x="232" />
<glyph unicode="&#x2009;" horiz-adv-x="372" />
<glyph unicode="&#x200a;" horiz-adv-x="103" />
<glyph unicode="&#x2010;" horiz-adv-x="720" d="M133 483l8 99h426l-8 -99h-426z" />
<glyph unicode="&#x2011;" horiz-adv-x="720" d="M133 483l8 99h426l-8 -99h-426z" />
<glyph unicode="&#x2012;" horiz-adv-x="720" d="M133 483l8 99h426l-8 -99h-426z" />
<glyph unicode="&#x2013;" horiz-adv-x="1024" d="M-16 487l16 91h1024l-16 -91h-1024z" />
<glyph unicode="&#x2014;" horiz-adv-x="2048" d="M-16 487l16 91h2048l-16 -91h-2048z" />
<glyph unicode="&#x2018;" horiz-adv-x="569" d="M178 1257q0 131 76 206t197 128l34 -63q-172 -72 -172 -185q0 -39 32 -78.5t32 -76.5q0 -41 -26.5 -61.5t-61.5 -20.5q-53 0 -82 41t-29 110z" />
<glyph unicode="&#x2019;" horiz-adv-x="569" d="M147 1169q172 72 172 185q0 39 -31.5 79t-31.5 76q0 41 26.5 61.5t61.5 20.5q53 0 82 -41t29 -110q0 -131 -76 -206t-197 -128z" />
<glyph unicode="&#x201a;" horiz-adv-x="569" d="M39 -250q172 72 172 184q0 39 -32 79t-32 77q0 41 27 61.5t62 20.5q53 0 81.5 -41t28.5 -111q0 -131 -75.5 -205.5t-196.5 -127.5z" />
<glyph unicode="&#x201c;" horiz-adv-x="796" d="M145 1257q0 131 76 206t197 128l35 -63q-172 -72 -172 -185q0 -39 31.5 -78.5t31.5 -76.5q0 -41 -26.5 -61.5t-61.5 -20.5q-53 0 -82 41t-29 110zM541 1257q0 131 75.5 206t196.5 128l35 -63q-172 -72 -172 -185q0 -39 31.5 -78.5t31.5 -76.5q0 -41 -26.5 -61.5 t-61.5 -20.5q-53 0 -81.5 41t-28.5 110z" />
<glyph unicode="&#x201d;" horiz-adv-x="796" d="M104 1169q172 72 172 185q0 39 -31.5 79t-31.5 76q0 41 26.5 61.5t61.5 20.5q53 0 82 -41t29 -110q0 -131 -76 -206t-197 -128zM500 1169q172 72 172 185q0 39 -32 79t-32 76q0 41 27 61.5t61 20.5q53 0 82 -41t29 -110q0 -131 -75.5 -206t-196.5 -128z" />
<glyph unicode="&#x201e;" horiz-adv-x="796" d="M-43 -250q172 72 172 184q0 39 -31.5 79t-31.5 77q0 41 26.5 61.5t61.5 20.5q53 0 81.5 -41t28.5 -111q0 -131 -75.5 -205.5t-196.5 -127.5zM336 -250q172 72 172 184q0 39 -32 79t-32 77q0 41 27 61.5t61 20.5q53 0 82 -41t29 -111q0 -131 -75.5 -205.5t-196.5 -127.5z " />
<glyph unicode="&#x2022;" horiz-adv-x="1024" d="M154 716.5q0 149.5 104 254t254 104.5t254 -104.5t104 -254t-104 -254t-254 -104.5t-254 104.5t-104 254z" />
<glyph unicode="&#x2026;" horiz-adv-x="2048" d="M213 72q0 45 24.5 75.5t65.5 30.5q39 0 62.5 -28.5t23.5 -67.5q0 -41 -26.5 -67.5t-61.5 -26.5q-41 0 -64.5 23.5t-23.5 60.5zM895 72q0 45 24.5 75.5t65.5 30.5q39 0 62.5 -28.5t23.5 -67.5q0 -41 -26.5 -67.5t-61.5 -26.5q-41 0 -64.5 23.5t-23.5 60.5zM1577 72 q0 45 24.5 75.5t65.5 30.5q39 0 62.5 -28.5t23.5 -67.5q0 -41 -26.5 -67.5t-61.5 -26.5q-41 0 -64.5 23.5t-23.5 60.5z" />
<glyph unicode="&#x202f;" horiz-adv-x="372" />
<glyph unicode="&#x2039;" horiz-adv-x="606" d="M115 510l8 74l311 280l66 -65l-283 -256l236 -277l-76 -65z" />
<glyph unicode="&#x203a;" horiz-adv-x="606" d="M94 266l283 256l-236 277l76 65l262 -309l-8 -74l-311 -280z" />
<glyph unicode="&#x205f;" horiz-adv-x="465" />
<glyph unicode="&#x2122;" horiz-adv-x="2027" d="M147 1343v91h656v-91h-279v-753h-98v753h-279zM958 590v844h168l275 -695l266 695h168v-844h-98v753h-4l-306 -753h-61l-305 753h-4v-753h-99z" />
<glyph unicode="&#xe000;" horiz-adv-x="1054" d="M0 0v1055h1055v-1055h-1055z" />
<glyph unicode="&#xfb01;" d="M-279 -504l9 90q94 -35 164 -35q170 0 236.5 147.5t92.5 530.5l51 734h-163l8 90h162q18 283 121.5 410.5t349.5 127.5q119 0 227 -41l-10 -90q-115 41 -217 41q-113 0 -184.5 -29.5t-108.5 -96t-51.5 -136.5t-20.5 -186h567l-86 -963h174l-8 -90h-272l86 963h-467 l-55 -734q-10 -133 -19.5 -214t-28 -181t-46 -158.5t-71.5 -113t-108.5 -78t-150.5 -23.5q-72 0 -181 35z" />
<glyph unicode="&#xfb02;" d="M-279 -504l9 90q94 -35 164 -35q170 0 236.5 147.5t92.5 530.5l51 734h-163l8 90h162q18 283 121.5 410.5t349.5 127.5q63 0 139 -16h108l-131 -1485h174l-8 -90h-272l131 1477q-61 25 -141 24q-113 0 -184.5 -29.5t-108.5 -96t-51.5 -136.5t-20.5 -186h303l-8 -90h-301 l-55 -734q-10 -133 -19.5 -214t-28 -181t-46 -158.5t-71.5 -113t-108.5 -78t-150.5 -23.5q-72 0 -181 35z" />
</font>
</defs>
</svg>
